<svg xmlns="http://www.w3.org/2000/svg" xmlns:xlink="http://www.w3.org/1999/xlink" viewBox="0 0 1400 980" width="100" height="100" shape-rendering="geometricPrecision" image-rendering="optimizeQuality" fill-rule="evenodd"><defs><path d="M23 63.5l.2 4.66c-7.07.16-14.13-.02-21.2.34L.43 63.53 23 63.5z" id="A"/><path d="M23.83 63.48c6.7.27 13.7-.46 20.33.34 3.5 2.23.9 6.2.6 9.38 6.12-1.87 12.22-1.3 18.38-.04l-1.2 4.78c-2.14-.43-4.3-.8-6.47-.9 1.78.6 3.6 1 5.44 1.44-2.28.85-4.53 1.96-6.9 2.55-2.78.4-5.68.23-8.48.2-.01-1.3 0-2.58.03-3.88l-1.05-3.6v5.07l-1.53.05c.26-2.95.55-5.9 1.17-8.8.2-1.76 1.06-3.4-.2-4.95-3.22-.98-6.94-.54-10.3-.6l.18 3.68-10 .24-.03-4.36v-.6z" id="B"/><path d="M2.18 69c7-.38 13.97-.18 20.97-.34l2.8 4.45-18 .28c-3.13.4-4.02-2.43-5.78-4.4z" id="C"/><path d="M23.97 68.95l9.7-.3 2.34 4.42c-2.94.14-6.07.46-9 .02-1.26-1.1-2.13-2.75-3.06-4.13z" id="D"/><path d="M41.6 68.7c.1 5.2-1.6 12.18 2.23 16.42 4.22 4.42 11.65 3.36 17 5.1 2.27.7 3.44 2.32 5 3.97 2.33-1.92 4.65-3.85 6.84-5.93l-4.44.6.78-1.9c-5.7.94-11.23 1.84-17 .68 5.27-1.15 10.74-.77 16.07-1.74 3.48.54 6.84 1.16 8.42 4.7l-2.56-1c-7.63 5.44-14.87 11.45-22.16 17.32.2 2.3.46 4.6.96 6.87l4.52-1.7c.85-2.56 1.23-2.55 3.5-3.74l2 1.4c1.52-.03 3.63-.98 4.64.67.42 1.48.58 3.05.8 4.57-2.45 2.46-4.62 5.8-7.65 7.54-3.73 1.12-5.2-1-7.33-3.56l-.88 1.76-4.2-1.14c-2.27.8-4.53 1.63-6.72 2.66l-2.82 1c-.75 1.9-1.68 3.65-2.73 5.4 2.84.87 2.9.36 5.2-1.03l6.75 6c-3.34 1.1-6.76 1.7-10.24 2.12l-.95-2.1c-6.12-1.28-9.7-5.75-15.2-8.2 0-2.6.1-5.56-.78-8.02-1-1.84-2.65-3.38-4-5 1.66-.78 3.32-1.56 4.92-2.45-1.9.46-3.76 1-5.64 1.54l-1.07-3.97c4.9-1.73 10.13-3 14.75-5.4-5.14 1.22-10.07 3.3-15.14 4.8l.23-4.68c6.2-1.97 12.3-4.15 18.45-6.27-2.2-.9-4.35-1.83-6.47-2.85 3.87-.34 7.7-.45 11.56.17 2.17-.22 4.26-.3 6.44-.3a57.23 57.23 0 0 1-4.92 1.71c-3.05 1.4-6.35 2.28-9.3 3.85-.77 2.85-.7 6-.93 8.92l3.86-5.6c-1.05 4.34-.44 6.97 1.18 11.02l4.92-2.73c1.54-3.36 2.45-6.87 3.2-10.48a182.98 182.98 0 0 1-.14 10.99c6.14-2.26 10.57-6.08 14.36-11.33l-5.17-2.5c3.67.24 6.97.03 10.54-.9l-5.6-2.3 2.33-1.68-4.32-.23 1.14-1.26c-4.53-.53-10.34-1.1-13.42-4.94-3.06-3.93-2.27-9.2-1.54-13.77l.7-3.07zM22 118.77l1.27-.86c.32-3.02.63-5.95.28-9a80.69 80.69 0 0 0 3.01 3.64c-.83-1.86-2.2-3.15-3.83-4.3-1.07 3.47-1.06 6.92-.73 10.5zm8.5-7.8c1.1 1.97 2.1 4 3.13 6.02l3.05-2.15 1.42.94 3.3-4.56c-2.27 1.38-4.52 2.3-7.08 3.03l-2.47-3.17-.6-3.42-.76 3.3zm11.27 1.3l3 4.73 2.64-3.73 1.5 1.86c1-2.32 1.76-4.62 2.3-7.1-3.1 1.53-6.22 3-9.45 4.23zm18.15 1.68l2.76-1.4a72.5 72.5 0 0 0 3.4 1.74c-1.65-1.4-3.38-2.7-5.15-3.95-.36 1.2-.7 2.4-1 3.6zm-31.63-1.9l.75 2.48-2.4.13c.33 1.65.7 3.3 1.1 4.93a31.89 31.89 0 0 0 .98-4.48c1 .16 1.77.48 2.7.93-.8-1.32-1.58-2.67-2.34-4.03l-.76.04zm-2.65 7.04c.14-1.25.88-4.56-.46-5.24-1.72 1.24-1.24 4.16.46 5.24zm37.53-.78c1.3-.44 3.07-1.78 2.42-3.34-1.5-.85-2.35 2.32-2.42 3.34zM61.9 121c-2.8-.96-4.6-2.03-6.76-4-.14 1.25-.2 2.08.66 3.1 1.44 2.18 3.97 1 6.1.88zm-31.6-3.1c-.9.44-1.14 1.08-.7 1.93 1.43.87 2.44-1.73.7-1.93zm4.93 2.98c.13-1.47-.65-3.16-2.3-3.23-2.3 1.23.6 3.5 2.3 3.23zm-12.4-1.14l-.12.52c1.84 4.3 4.83 7.98 9.04 10.13 3.34 1.84 6.87 2.24 10.6 2.67-3.2-1.88-7.77-3.4-9.95-6.46-1.4-1.87.35-3.56.88-5.46-3.94-.28-7.2.65-10.07-2.8-.13.46-.25.92-.37 1.4zm10.87 3.83c2.04 1.63 3.62-.3 3.5-2.45-1.47.34-2.58 1.3-3.5 2.45z" id="E"/><path d="M6.42 74c6.7-.32 13.42-.25 20.13-.42l.67 4.5c-4.3.1-8.95.5-13.2-.3-2.9-.6-5.18-2.2-7.6-3.78z" id="F"/><path d="M27.4 73.76l9.1.1v4.32l-8.6.17-.53-4.58z" id="G"/><path d="M63.85 73.42c4.76 1.8 8.2 4.14 11.8 7.7l-3.85 3.37c-2.9-2.45-5.97-4.55-9.26-6.46l1.3-4.6z" id="H"/><path d="M16.23 78.78l11.2-.18L29 82.77l-11.36-.02-1.42-3.97z" id="I"/><path d="M28.08 78.9l8.54-.27.96 3.92-7.3.84-2.2-4.5z" id="J"/><path d="M44.42 78.9c1.05 3.42 1.7 4.62 4.52 6.77l-2.33.2c-1.05-1.42-2.04-2.88-2.93-4.4l.74-2.57z" id="K"/><path d="M63.04 79.36c2.92 1 5.6 3.42 8 5.27-5.6.42-10-1.83-15.06-3.63 2.1-.6 4.8-2.16 7.05-1.64z" id="L"/><path d="M45.8 82.07l7.74.01-3.55 3.3c-1.55-.9-2.87-2.1-4.2-3.3z" id="M"/><path d="M55.96 81.7c2.75.85 5.43 1.86 8.06 3.04-3.93 1.45-8 1.68-12.15 1.76.26-2.7 1.46-4.1 4.1-4.8z" id="N"/><path d="M17.85 83.33c4.03-.14 8.05-.17 12.06.27l1.34 3.7c-3.48-.05-6.95.08-10.42.13l-.97-1.23-2-2.88z" id="O"/><path d="M30.47 83.8l7.33-.38 2 3.75-7.75.2-1.6-3.58z" id="P"/><path d="M49.78 85.74c1.1.01 1.76.4 2 1.15-.86 1.17-3.37.1-2-1.15z" id="Q"/><path d="M21.15 88c6.3-.67 12.35.67 18.62-.44l5.9 5c-2.82-.1-5.77-.02-8.55-.56-1.56-.9-2.94-2.1-4.4-3.16l2.72 3.22c-3.25.02-6.5.1-9.74.25-1.55-1.4-3.06-2.84-4.55-4.3z" id="R"/></defs><g transform="matrix(13.393019 0 0 13.393019 184.044791 -845.32843)" fill="#005a9c"><use xlink:href="#A"/><use xlink:href="#B"/><use xlink:href="#C"/><use xlink:href="#D"/><use xlink:href="#E"/><use xlink:href="#F"/><use xlink:href="#G"/><use xlink:href="#H"/><use xlink:href="#I"/><use xlink:href="#J"/><use xlink:href="#K"/><use xlink:href="#L"/><use xlink:href="#M"/><use xlink:href="#N"/><use xlink:href="#O"/><use xlink:href="#P"/><use xlink:href="#Q"/><use xlink:href="#R"/></g></svg>