<svg xmlns="http://www.w3.org/2000/svg" xmlns:xlink="http://www.w3.org/1999/xlink" viewBox="0 0 1400 980" width="100" height="100" shape-rendering="geometricPrecision" image-rendering="optimizeQuality" fill-rule="evenodd"><defs><path d="M497 5.78C530.85 4.6 564.9 8 597.96 15.26c11.88 2.78 24.02 5.7 35.23 10.47 12.04 4.72 23.2 11.04 34.02 18.06 20.58 13.76 38.63 31 52.27 51.73 7 10.07 12.7 20.8 18.35 31.65C759.3 171 773.16 219.04 781.67 267c4.2 24.5 6.7 49.18 7.72 74 .37 10.72.26 21.48-.47 32.2-1.74 34.17-6.78 68.28-14.86 101.53-5.5 23.72-12.84 47-21.52 69.75-6 14.85-12.34 29.76-20.15 43.76-9.97 18.5-21.72 35.6-36.96 50.2-20.64 19.7-45.58 35.3-72.6 44.55-37.95 11.8-78.12 17-117.82 16.55-35.6-.6-71.37-5.63-105.5-15.9-5.27-1.57-10.4-3.68-15.5-5.77-27.23-12.02-51.96-29.9-71.06-52.8-7.36-8.47-13.36-18-19.33-27.66-13.33-22.6-23.52-46.88-32.16-71.6-7.94-23.72-14.7-47.8-19.38-72.4-4.86-24.37-8.5-49.22-9.9-74.04-1.08-10.38-.8-20.93-.86-31.36.1-7.55.03-14.9.88-22.35 1.35-24.35 4.9-48.78 9.62-72.7 5.07-26.53 12.35-52.58 21.2-78.1 9.94-27.4 21.7-54.6 38.03-78.83 8.3-12.77 18.36-24.12 29.56-34.42 22.77-20.3 50.42-36.13 80.16-43.42 28.15-7.26 57.2-11.3 86.22-12.4zm5 684.07c5.55.6 10.46.55 16-.01 26.82.01 53.75-3.82 79.85-9.87 14.1-3.1 27.7-8.05 40.66-14.38 25.32-12.22 46.87-31.13 62.95-54.14 17-23.92 28.42-52.54 37.6-80.27 7.3-23.35 13.68-47.07 18.22-71.12 5.65-29.25 9.98-59.27 10.63-89.08.58-5.66.4-11.3.4-16.98-.04-6.7.26-13.32-.44-20-.35-22.36-3.14-44.96-6.65-67.03-3.36-20.2-7.28-40.17-12.62-59.95-4.7-17.65-9.74-35.17-16.3-52.23-11.25-30.5-26.36-60.35-49.63-83.48-20.94-21.74-48.97-36.74-78-44.46-30.82-7.9-62.86-12.17-94.7-11.57-32.04-.6-63.9 3.65-94.92 11.53-24.72 6.6-48.64 18.4-68.1 35.13-13.52 11.57-25.14 25.42-34.53 40.52-8.67 13.47-15.47 28.52-21.6 43.32-13.1 33.26-22.12 67.46-29.1 102.47-6.4 34.63-10.73 70.5-10.2 105.74-.27 20.98 1.4 42.18 3.97 63 3 23.73 7.16 47.27 13 70.47 5.75 24.16 12.97 47.9 22 71.05 9.62 23.7 20.8 45.88 37.5 65.48 12.33 14.88 27.4 27.22 44.13 36.86 14.23 7.86 29.48 14.16 45.28 18.05 27.58 6.7 56.18 10.96 84.6 10.95z" id="A"/><path d="M475.5 30.58c1.55 7.76 2.57 15.63 3.92 23.43.75 5.3 2.08 10.64 2.33 16 .1 4.84-2.75 8.5-6.38 11.33-4.16 3.22-9.22 4.34-14.34 4.93-5.85.63-12.86-.9-17.08-5.23-2.8-2.86-3.13-7.07-3.8-10.8-1.6-10.96-3.82-21.83-5.18-32.8l10.44-1.84 5.18 31.4c.76 3.57.4 7.42 3.9 9.55 4.4 2.76 12.1 1.44 15.17-2.9 1.5-1.74 1.03-4.55.86-6.65l-5.5-34.57 10.5-1.83z" id="B"/><path d="M532.4 30.23c3.55.06 7.24.01 10.75.58l.9 1.2c2.3 12.34 3.7 25.05 7.1 37.15 5.55-11.63 9.75-23.92 14.52-35.9 3.78.24 7.53.6 11.3 1.13-7.1 16.57-14.98 32.8-22.12 49.36-3.36-.12-6.73-.3-10.1-.53l-12.35-53z" id="C"/><path d="M607.76 42.3c11.8 4.36 23.35 9.8 35.06 14.5l-3.37 8.1-24.7-10.43c-1.53 3.26-2.93 6.57-4.32 9.88 7.04 3.22 14.27 6.02 21.42 9-.95 2.8-1.85 5.74-3.26 8.37-7.5-2.07-14.46-6.3-21.9-8.7l-5.28 12.92c8.28 3.12 16.25 7 24.54 10.1-.6 2.9-1.7 5.56-2.96 8.22-11.8-4.48-23.37-9.56-35.02-14.38 1.9-6.05 4.8-11.82 7.18-17.7 4.32-9.9 8.07-20.1 12.63-29.86z" id="D"/><path d="M382.56 56.74l41.9 34.46c-2.72 1.97-5.96 4.87-9.3 5.52-3.13-2.2-5.84-5-8.9-7.32-4.95 3.23-9.96 6.4-15.15 9.22.28 4.02 1.3 7.85 2.36 11.7-3 2.02-6.07 3.86-9.24 5.57l-9.92-45.92c-.57-2.55-.93-5.12-1.2-7.72 3.13-1.86 6.2-3.85 9.43-5.52zm6.17 33.08c3.55-2.1 7.14-4.12 10.44-6.6-5.37-4.55-10.38-9.5-15.72-14.07 1.6 6.93 3.5 13.8 5.28 20.68z" id="E"/><path d="M678.34 85.16c4.87 6.6 10.3 12.84 14.84 19.68 2.44 3.83 4.77 8.3 4.05 12.98-.76 4.42-4.28 8.3-8.23 10.2-4.1 1.48-8.7 1.24-12.36-1.28.47 3.33.53 6.43-1.6 9.24-3.7 4.92-9.03 8.33-12.97 13.12-1.84-2.54-4.03-4.92-5.62-7.63-1-1.77.48-2.3 1.48-3.55 3.12-3.03 7.43-5.5 9.72-9.27 1.2-1.77 1.26-4.15.2-6-2-3.75-4.76-7.17-7.5-10.4-5.4 4.38-11.02 8.48-16.5 12.76-2.06-2.56-4.22-5.08-6.06-7.8-.82-1 .35-1.67 1.03-2.3l29.58-22.54c3.4-2.5 6.2-5.24 9.93-7.2zm-10.46 21.4c2.35 4.22 5.4 8.33 8.86 11.7 3.18 3.14 8.08.7 9.8-2.7.5-2.08.18-4.3-.95-6.12-2.2-3.66-4.9-7.06-7.6-10.37-3.48 2.33-6.67 5.07-10.1 7.48z" id="F"/><path d="M502.03 97.15c4.67-.43 9.33-.68 14.02-.23 7.12.73 14.2.26 21.3 1.2 17.87 1.58 35.56 4.64 52.83 9.53 19.98 5.82 37.85 18.33 49.7 35.5 5.08 7.23 8.3 14.96 11.93 23 15.55 36.84 24.65 75.56 30.37 115.04 2.46 19.17 4.34 38.48 4.52 57.8l.04 25c-.46 40.55-6.57 81.38-16.6 120.65-6.04 22.75-13.66 45.3-23.93 66.5-11.7 23.92-34.45 41.26-60.22 47.43-25.68 6.83-52.45 9.76-78.98 9.75-18.57-.6-36.92-2.1-55.16-5.85-14.18-2.98-27.6-5.77-40.35-13-16.68-9.23-30.27-23.63-38.2-41-4.35-9.67-8.58-19.55-12.1-29.55-8.74-25.06-15.37-50.78-19.67-76.97-4.03-23.78-6.78-47.88-7.42-72-1.1-16.4-.1-32.62.56-49 2-29.93 6.35-59.76 13.1-89 6.7-27.56 15.18-54.24 27.65-79.76 8.98-17 23.44-30.74 40.78-39.02 6.6-3.2 13.55-5.45 20.66-7.26 21.26-5.35 43.25-8.42 65.17-8.8zm61.42 67.13c2 2.74 3.8 5.73 6.1 8.22 3.27.17 7-1.4 10.2-2.14 7.27-2.03 14.74-5.2 18.07-12.5 3.1-6.25 1.4-14.27-4.2-18.52-6.42-5.2-16-4.24-21.6 1.72-5.64 5.92-6.83 15.57-8.6 23.23zm-148.58 17.67c-5.95-1.62-9-7.18-11.96-12.08-.8 11.2-1.6 23 2.6 33.63 1.6 4.46 4.2 8.28 7.34 11.8 4.05-.07 8.1.04 12.15 0 3.96.8 5.9-4.46 7.1-7.33 3.6-10.55-.55-18.97-2.75-29 6.12 1.58 6.48 8.32 7.55 13.43 3.2-6.07 3.28-12.76 1.9-19.35-1.34-6.6-3.9-12.64-6.7-18.7-2.46 2.4-5 4.72-7.77 6.77-1.77-5.73-1.32-11.42.3-17.1-4.06 1.17-7.8 2.73-10.67 5.97-5.1 5.26-5.85 13.22-4.4 20.1.87 4.5 3.25 7.95 5.33 11.9zm145.26 15.22c3.43 11.18-2.87 20.05-1.4 31.85-3.8 2.4-7.53 4.94-11.3 7.42-4.45 3.05-9.73 3.47-14.1 6.88-2.96 2.02-4.78 4.87-6.33 8.03-2.84.1-5.4-.1-8.1-.97-1.18-2.65-2.2-5.25-2.53-8.16 1.5-.9 3.03-1.28 3.85-2.95 2.84-5.24 5.5-10.73 7.6-16.3 1.93-4.6-.15-9.57-2.2-13.75-1.47-2.77-2.93-5.6-4.76-8.15-1.98-2.38-5.33-2.4-8.16-2.66l-2.65 2.23c-4.27-.1-8.96-3.8-12.7-1.3-6 3.4-8.38 9.3-9.9 15.72-.57 2.95-2 7.04-.4 9.8 2.5 5 5.4 9.85 8.75 14.34 1.55 2.2 3.2 4.07 3.58 6.83.6 3.8 1.14 7.6 2.12 11.34a79.44 79.44 0 0 1-4.84 6.13c-4.72.5-9.13 1.24-13.04 4.17-3.57 2.58-5.22 6.78-7.57 10.38-4.46 7.25-10.68 12.97-17.1 18.47-3.53-2.6-6.73-5.55-10.05-8.4-9.58-8.03-16.75-18.34-26.58-26.42-2.4-1.86-5-3.84-7.88-4.9-4.06-.98-8.34-.77-12.27.7.3 5.7.8 12.05 3.2 17.3 1.94 3.73 5.18 6.6 9.6 6.54 4.66.1 8.6 1.5 12.08 4.6 8.82 7.7 12.64 20.8 21.4 28.62 2.23 2.02 4.47 4.3 7.1 5.8 1.86.98 3.18-.1 4.72-1.06a104.97 104.97 0 0 0 18.04-15.97c3.24-3.5 6.14-7.28 9.54-10.65.97 3.07 1.67 6.1 4.15 8.34 2.12 1.96 4.58 2.26 7.28 2.84 2.24 6.28 4.94 12.63 6.16 19.2.6 1.6-1.36 3-2.24 4.16-15.95 17.1-26.7 38.83-30.84 61.83-1.4 6.54-1.86 13.1-2.4 19.75-.15 3.87-3.16 5.87-5.14 9.1-9.2 13.64-11.64 31.2-14.03 47.15-.8 4.27-.87 9.1-2.64 13.1-3.92 8.08-13.37 13.53-17.8 21.1-4.35 7.28-2.38 17.9 5.2 22.25 1.75 1.26 3.57 1.08 5.6 1.24 4.7-11.7 12.44-20.92 18.92-31.54 1.87-2.73 1.38-5.48 1.8-8.6 1.08-10.6 5.58-20.45 11.2-29.4 5.84-9.33 12.77-17.2 19.42-25.9-2.84-7.82-4.5-15.55-.8-23.45 1.88 11.43 5.14 22.34 9.12 33.2 2.36 6.88 5.18 13.65 7.1 20.67-4.75 6.28-4.8 13.04-6.53 20.38-1.57 6.84-6.62 11.75-8.85 18l.83 1.48c6.14.7 12.7-.8 17.87-4.2 2.2-1.7 4.55-3.16 4.33-6.28.06-10.17 7.43-15.37 12-23.48 1.58-2.5.16-4.76-1.15-6.98-1.53-2.6-4.45-5.45-4.6-8.53-.55-13.83 1.24-29.7-2.7-43.03-1.72-6.34-5.2-11.63-9.15-16.8l16.33-12.95c4.96-3.7 10.44-7.77 14.07-12.86 3.16-4.26 3.8-10.27 3.98-15.4-.4-11.1-3.24-22.1-7-32.5-1.1-3.28-2.7-5.9-1.83-9.5 1.8-9.37 4.37-18.7 5.63-28.22.42-2.9.25-5.74 1.54-8.28 1.65-3.28 3.25-6.6 5.06-9.8 1-1.8 2.73-2.58 4.4-3.65 7.32-4.24 15.04-8.93 21.35-14.6 2.13-1.72 1.6-5 1.77-7.45 0-12.77-1.05-25.56-2.15-38.27-1.92-11.53-9.06-20.84-16.25-29.65-.77-.8-1.58-2.08-2.8-2.1-3 3.25-5.78 8.68-6.6 13 1.42 8.2 4.76 17.16 12.64 21.17zm-16.25-10.36c-3.9 4.45-8.23 8.52-12.2 12.9-1 1 .1 2.02.8 2.8 1.5 1.63 3.15 3.15 4.72 4.72 4-3.9 7.9-8.15 11.5-12.4-1-2.98-3-5.7-4.6-8.4l-.13.2-.1.17zm-140.5 34l-.03 8.45c2.48 0 5-.1 7.47.12 1.37 6.76 1.78 13.76 3.3 20.5.6.96 2.1 1.3 3.07 1.86 3.08 1.25 5.73 3.14 8.32 5.2 1.26-9.16 2.42-18.4 3.24-27.6l7.84-.07-.14-8.4c-11.02-.01-22.05.03-33.08-.03zm203.14 33.85l.05 42.34c-.2 1.5.4 3.5-1.12 4.42-2.26 1.78-5.62 1.37-7.77-.4-.57-2.58-.35-5.4-.37-8.03l.04-36.76c-6.1.2-12.2 1.26-18.28 2.03l-.02 15.75c.03 3.42-1.83 5.9-3.4 8.77-6.23 10.95-14 20.37-21.68 30.44 6.73.16 13.38 1.03 20.1 1.47l5.9 12.77 40.2.02 3.43-14.24c3.72-.67 7.47-1.16 11.18-1.82l-.13-36.05c-3.14.6-6.3 1.13-9.45 1.56l-.12-26.9c-6.3.8-12.4 3.1-18.55 4.64zM415.1 286.93c-.02 11.47.52 22.94.57 34.42l8.67.01.47-31.08c-3.26-2.22-5.64-3.23-9.7-3.35zm-34.57 51.74l-.08 25.96 88.92-.05V342c0-1.9.14-3.47-2.27-3.33h-86.57zm173.1 0l-.1 25.93 52.47.17 36.47-.14-.1-25.93-88.75-.03zm-12 39.9l-.14 75.96 25.9-.04v-75.92a2213.66 2213.66 0 0 0-25.77 0zm57.74 6.45c-.14 4.63-.14 9.25 0 13.88 7.7 7 14.9 14.6 22.72 21.5 4.7-6.6 10.82-13.98 11.3-22.36.02-2.78.43-6.5-1.92-8.47-3.82-3.77-8.05-7.14-12.13-10.63-.13 6.26.5 12.72-.37 18.93-.8 4.48-2.63 7.3-6.2 10.05-.43-7.23.2-14.53-.3-21.73-1.7-2.9-4.32-5.35-6.5-7.9-2.32 2.14-4.44 4.46-6.6 6.75zM579.7 389c.07 7.23-.9 15.77 3.1 22.18 5.66 8.44 14.43 15.28 21.7 22.3 6.55 5.77 13.08 11.62 19.18 17.87 2.75 2.73 3.56 6.08 4.15 9.8 2.3-3.88 5.75-8.45 5.4-13.16-.37-5.37-3.6-9.34-7.27-12.95l-25.14-24.86c-2.96-3.13-6.8-5.75-7.9-10.14-2.15-7.24-.72-13.62-.6-20.96-4.34 3.14-8.38 6.65-12.62 9.92zm-198.93 5.97c1.86 1.56 3.86 2.97 5.63 4.62 1.7 1.9 1.9 5 1.92 7.42l-.04 45c-.03 2.56.3 4.9 1.57 7.16 3.17 6.18 10.5 9.27 17.13 9.6 5.47.17 10.6.36 15.5-2.48 4.76-2.44 7-7.15 7.77-12.25.96-7.92.03-16.2.48-24.07.3-3.8 1.5-7.4 5.4-8.76 5.06-1.87 9.28.27 13.53 2.85.1-8.7.6-18.5-1.94-26.88-1.2-4.12-3.8-7.5-7.94-8.95-6.4-2.7-13.73-1.92-19.28 2.3-2.78 2.27-5.08 5.86-5.1 9.53-.26 12 .3 24.02-.06 36 .2 4.58-5.63 5.6-8.47 3.03-1.57-1.43-1.2-3.18-1.3-5.1l.04-35.02c-.07-3.52-.85-8.45-3.66-10.87-7.1 2.05-14.1 4.6-21.17 6.85zM620.7 501.53c4-3.3 9.25-6.45 12.56-10.3.26-6.1.62-12.96-1.48-18.78-1.58-4.4-5.46-8.23-8.62-11.6-10.46-10.54-22.03-20.02-32.66-30.34-3.2-2.95-4.4-6.57-5.28-10.7-2.45 3.5-5.26 7.84-5.5 12.2.34 5.07 3.06 9.2 6.63 12.64 9.2 8.8 17.97 18.05 27.18 26.84 2.54 2.58 5.3 4.85 6.43 8.4 2.32 7.5.92 14.1.75 21.65zm-31.33-39.1c-4.36 6.44-9.3 12.42-9.72 20.56-.01 2.34-.25 5.94 1.68 7.64 3.88 3.86 8.04 7.46 12.33 10.85.25-7.46-1.13-15.3 1.46-22.45 1-2.75 3.05-4.4 5.25-6.2.25 7.22.06 14.46.12 21.68a218.8 218.8 0 0 0 6.48 7.78c2.65-2.47 5.2-5 7.36-7.92-.2-3.82.1-7.67-.22-11.48-.4-1.33-1.67-2.42-2.62-3.38l-20.52-19.4-1.6 2.32zm-55.88-.8c-.17 2.4.23 4.5-1.18 6.6-3.64 6.13-9.37 12.48-10.27 19.77-.5 2.6-.2 4.85-2.25 6.82-3.42 3.55-8.43 5.35-12.93 7.08 5.63 10.13 19.28 15.1 30.2 11.45 8.87-2.84 16.58-10.02 18.44-19.37 1.7-7.08.64-14.88-3.62-20.88-3.77-5.22-8.98-9.34-15.36-10.76l-3.02-.7zm-23.14 58.8c-2.36 2.44-4.4 5.98-7.15 7.85-8.9.3-17.86-.01-26.77.13.06 4.15-.2 8.33.1 12.48 1.83.73 4.5.3 6.47.33 6.82-.6 13.6-.33 20.44-.38l.13 31.5 17.73-.02v-31.1c9.14-1.08 17.98.14 27.08.04l.03-12.82-22.4-.02c-1.56-.05-3.3.1-4.8-.35-3.25-3.02-5.77-6.77-8.94-9.9l-1.9 2.24zm-13.4 31.25c-16.88-.1-33.77.08-50.65-.1-.34 7.53 4.6 14.37 10.3 18.8 9.63 7.38 24.63 5.9 33.1-2.6 4.42-4.3 7.32-9.82 7.24-16.1zm30.57-.01c.6 5.25 2.12 10.1 5.6 14.16 6 7.4 16.5 10.73 25.72 8.74 10.68-2.27 19-12.06 19.86-22.9l-51.18-.01z" id="G"/><path d="M328.66 100.33l7.3 4.2c-4.1 7.96-8.55 15.77-12.97 23.56 3.1 1.88 6.2 3.7 9.57 5 3.62-6.74 7.58-13.27 11.14-20.04a84.81 84.81 0 0 1 8.06 4.11c-3.44 7.1-7.63 13.83-11.28 20.82l12.27 6.74 13.12-23.5c2.62 1.42 5.22 2.87 7.77 4.42L355.1 158.7l-45.08-25.1 18.63-33.28z" id="H"/><path d="M718.3 154.37c1.6 3.3 3.06 6.68 4.5 10.07l-35 15.2c-4.15 1.64-8.17 3.84-12.46 5.06-1.85-3.03-3-6.56-4.2-9.9l47.16-20.42z" id="I"/><path d="M316.96 179.13c1.82 2.27 1.7 4.7 1.97 7.44 2.08-1.74 4.15-3.75 7-4 6.82-.78 12.92 2.45 19.85 2.27-.85 3.6-1.82 7.14-2.73 10.72-5.23-.15-9.9-2.4-15.04-2.88-2.5-.24-5.03.7-6.4 2.85-2.24 3.8-3.42 8.42-4.43 12.7l19.8 5.64c-.53 3.75-1.73 7.27-2.9 10.84l-49.16-14.55c1.04-5.22 2.7-10.2 4.1-15.35 2.15-7.08 4.53-16.58 11.9-19.94 5.37-1.88 12.5-.46 16.07 4.24zm-20.75 22.9c4.12 1.08 8.2 2.33 12.26 3.63 1.48-4.77 3.55-9.66 4.08-14.64.3-5.67-9.1-8.25-11.53-3.02-2.45 4.18-3.6 9.37-4.8 14.03z" id="J"/><path d="M543.88 186.8l.1-.17.13-.2c1.6 2.7 3.6 5.42 4.6 8.4-3.62 4.25-7.5 8.5-11.5 12.4-1.57-1.57-3.2-3.1-4.72-4.72-.68-.78-1.8-1.8-.8-2.8 3.96-4.38 8.28-8.45 12.2-12.9z" id="K"/><path d="M731.2 190.66l10.53 40.46-8.66 1.92c-1.23-4.87-2.36-9.76-3.78-14.6l-30.3 7.85c-3.67.98-7.3 2-11.07 2.5-.73-3.47-1.6-6.9-2.55-10.32 13.73-3.83 27.66-6.96 41.4-10.8-1.37-4.9-2.63-9.84-3.8-14.8l8.24-2.23z" id="L"/><path d="M276.76 248.25c3.74.06 7.55.98 11.27 1.5l26.06 4.07c3.96.7 6.92 2.67 8.92 6.17 3.28 5.24 3.16 10.9 2.52 16.85-.95 6.43-4.3 13.14-10.08 16.5-3.17 1.97-7.4 1.36-10.93.9l-34.15-5.6a89.7 89.7 0 0 0 1.5-10.32c12.43 1.34 24.75 3.96 37.18 5.34 5.12.82 8.36-5.3 8.5-9.62.5-4.44-1.67-9.1-6.52-9.65l-35.88-5.85c.48-3.43.88-6.9 1.6-10.28z" id="M"/><path d="M693.34 255.22c2.23.1 4.4.46 6.6.92l47.04 9.63c.4 3.75.9 7.47 1.43 11.2l-48.67 24.8c-.5-3.6-1.04-7.17-1.37-10.78 3.45-1.73 6.9-3.43 10.44-4.98-.68-6.1-1.65-12.2-2.53-18.28-3.88-.62-7.74-1.35-11.58-2.2-.4-3.45-1.07-6.87-1.35-10.32zm23.85 26.55c6.4-3 13-5.72 19.22-9.08-6.93-1.28-13.98-2.28-20.96-3.25.4 4.12 1.1 8.24 1.74 12.33z" id="N"/><path d="M415.1 286.93c4.07.12 6.45 1.13 9.7 3.35.08 10.36-.42 20.72-.47 31.08-2.9 0-5.78 0-8.67-.01l-.57-34.42z" id="O"/><path d="M313.26 326.74c3.95 2.67 5.12 8.83 5.24 13.26l-.02 25.5c-17.03-.14-34.06.2-51.1.16.27-10-.73-19.6.52-29.68.42-3.1 1.6-5.98 4.08-8 3.17-2.6 7.58-2.86 11.45-2.15 3.67.96 5.82 3.52 7.47 6.8 1.8-2.93 3.36-5.63 6.55-7.25 4.92-2.87 11.26-1.64 15.8 1.37zm-17.58 27.76c4.66.1 9.3.08 13.97.05-.05-5.03.87-10.8-.58-15.64-2-5.98-12.98-4.63-13.22 2.02-.6 4.45-.08 9.08-.17 13.57zm-20.33.08l12.22-.03c.04-4.5.24-9.06-.1-13.56-.22-2.48-1.54-5.04-4.42-4.82-3.2-.3-6.14.3-7.32 3.64-.77 4.8-.17 9.9-.37 14.77z" id="P"/><path d="M716.52 322.32c.33 3.32.7 6.63.88 9.97-3.8 1.27-7.1 2.67-8.32 6.87-1.2 4.5-1.23 10.93 2.35 14.45 1.45 1.82 4.6.95 6.62.93 6.93-7.55 3.84-18.02 9.5-26 4.7-6.66 15.45-6.64 21-1.13 3.53 3.34 5.2 7.84 5.8 12.58.5 5.5.1 10.94-2.42 15.95-2.6 4.85-7.7 7.82-13.16 8.02-.22-3.34-.4-6.68-.4-10.03 3.58-.45 5.7-1.65 6.82-5.17.8-3.95 1.1-9.86-2.07-12.92-1.65-1.86-5.87-2.4-7.17.1-4.4 6.85-3.2 17.8-8.34 24.64-4.56 6.53-15.33 6.92-21 1.75-4.36-3.52-6.23-9.96-6.38-15.34-.07-5.14-.38-10.15 1.9-14.88 1.96-4.4 5.76-7.52 10.23-9.16 1.38-.24 2.77-.45 4.15-.65z" id="Q"/><path d="M605 605.48c6.46.1 12.7 4.78 13.3 11.47.5 4.28-1.9 7.04-4.3 10.2 2.7.9 5.22 1.5 7.37 3.5 5.9 5.63 6.04 16.2.16 21.92-4.58 4.46-11.26 6.92-17.57 7.4-5.52.5-11.22-.62-15.2-4.75-4.1-4.02-5.25-10.08-3.75-15.52.95-2.85 2.9-4.63 4.94-6.72-3.08-1.3-5.96-2.2-7.74-5.25-2.88-4.8-1.97-10.7 1.65-14.82 4.92-5.64 13.92-7.77 21.13-7.42zm-8.66 8.93c-4.32 1.6-6.7 6.06-3.97 10.22 3.16 4.2 9.7 3.02 13.34.12 2.84-2.26 2.8-6.35.53-9-2.34-2.8-6.82-2.65-9.9-1.34zm7.14 20.34c-2.3.57-4.75 1.6-6.45 3.3-2.92 3.33-2.38 9.05 1.35 11.6 3.68 2.94 8.92 1.53 12.66-.52 4.7-2.57 5.15-10 .92-13.13-2.38-1.87-5.66-1.72-8.48-1.24z" id="R"/><path d="M425.06 608.53l7.9 2.3c-1.06 5.82-3.3 11.05-4.94 16.77l-10.84 32.76L407 657c3.38-11.4 7.7-22.56 10.75-34.06-4.28-1.1-8.48-2.48-12.67-3.88a141.17 141.17 0 0 1 2.28-6.66c3.63.87 6.95 1.7 10.68.77 2.65-.7 4.86-3.02 7.02-4.65z" id="S"/><path d="M467.13 617.9c4.2-.93 8.7-.78 12.92-.15 4.8.9 9.4 2.95 12.04 7.23 2.1 3 2.23 7.15 1.35 10.6-1.07 3.12-4 4.97-6.62 6.7 2.9 2.44 5.72 4.34 6.87 8.18 2.5 7.4-1.15 15.66-8.2 18.9-7.56 3.38-17.7 2.87-24.94-1.13-6.4-3.7-9.45-11.1-7.25-18.23 1.16-4.66 4.58-7.26 8.8-9.06-1.94-1.66-4.3-3.47-5.45-5.8-.78-2.86-.8-6.4.1-9.23 1.9-4.15 6-7 10.38-8zm3.4 7.82c-3.9 1.82-5.43 6.84-2.5 10.24 2.86 2.7 8.04 3.3 11.56 1.8 3.6-1.5 4.86-5.98 2.7-9.2-2.27-3.74-8.06-3.87-11.78-2.83zm-1.37 21.4c-4.12 1.07-6.78 5.88-5.34 9.92 1.18 3.48 4.56 5.65 8.17 5.72 3.55.08 6.72.46 9.33-2.43 3.4-3.2 2.9-9.02-.88-11.68-3.3-2.04-7.55-2.6-11.28-1.53z" id="T"/><path d="M550.06 622.92c5.07 4.55 5.9 12.8 3.58 18.87-3.6 8.8-15.82 12.62-20.03 20.53 7.92-.68 15.85-.94 23.8-1.18l.27 8.53-38.62 2.27c.3-3.36.67-6.57 2.32-9.57 3.3-6.5 10.06-11.76 15.4-16.6 2.28-2.14 5.2-4.46 6.5-7.36.68-3 .74-6.75-1.56-9.1-2.74-3.07-7.8-3.22-10.78-.38-2.46 2.14-2.83 6.28-3.57 9.33l-9.7.13c-.4-7 1.56-14.1 8.1-17.7 7.3-3.8 18.1-3.7 24.3 2.24z" id="U"/><path d="M107.6 743.86h800.8l.06 117.76c-4.5.1-8.97.1-13.46.08H121c-4.5.01-8.97.04-13.45-.08l.06-117.76zm74.04 20.58l.04 65.56c.05 3.5-.25 7.16.23 10.63 12 .27 24.06.03 36.08.12 7.77.12 16.22-2.2 21.3-8.44 6.2-7.24 5.4-19.04-.36-26.27-2.1-2.78-4.95-4.06-7.8-5.88 2.84-2.4 6.3-3.24 8.05-6.98 3.9-7.9 1.65-19.4-5.7-24.64-4.23-3.08-9.3-4.3-14.48-4.2-12.45.07-24.9-.13-37.35.1zm179.05.02c-5.36-.01-10.72-.05-16.1.04l.02 55.53c.28 4.8-4.62 8.64-8.8 9.9-5.82 1.53-12.8.87-17.4-3.37-2.14-2-3.08-4.62-2.94-7.55l-.1-54.5c-5.26-.02-10.57-.25-15.83.05L299.5 820c-.07 5.2 1.76 10.3 5.53 13.95 5.46 5.04 12.6 7.83 19.96 8.53 7.43.58 14.66.2 21.55-2.87 5.2-2.33 10.46-6.1 12.72-11.53 1.45-3.27 1.4-6.58 1.45-10.08v-53.54zm65.45-.07l-.01 76.27c5.4.13 10.78.13 16.16-.03l.1-31.15c6.22.07 12.48-.24 18.68.16 3.38.18 5.6 2.47 6.9 5.4 3.68 8.56 1.9 16.15 3.7 25.6 5.3.14 10.6.13 15.9.03-3.28-9.48-1.03-20.94-5.43-29.6-2.12-4.35-5.92-6.1-10.1-7.94 5.17-1.2 10-3.77 12.66-8.53 2.13-3.88 2.05-8.3 1.9-12.6-.14-5.86-3.9-10.93-8.9-13.7-5.45-2.95-11.57-4.02-17.72-3.85-11.3.14-22.57-.25-33.85-.04zm120.45 0l.02 76.23 56.6.03c-.1-4.02.2-8.1-.1-12.1-.9-1.28-2.73-.7-4.12-.88l-36.13.03c.03-7.03-.55-14.2.35-21.18l34.56.1-.01-13.3c-11.5.07-23-.13-34.5.1-.78-5.5-.8-11.34 0-16.82l39.5-.05c1-3.3.16-8.42.5-12.07-2.1-.4-4.15-.8-6.3-.73l-36 .05c-4.86.05-9.6-.37-14.4.6zm242.27.01a355.9 355.9 0 0 0-15.67.01l.07 57.6c.03 4.68 2.3 8.9 5.7 12 5.92 5.65 14 8.1 22.03 8.54 9.07.5 18.32-1.26 25.64-6.9 3.3-2.48 5.85-5.82 6.97-9.83 1.2-4.26.87-8.43.9-12.84v-48.65c-5.34.06-10.72-.2-16.05.1L818.4 819c.18 5.35-3.88 9.02-8.58 10.67-6.34 2.08-14.6.9-18.88-4.65-2.03-2.36-2-6.08-2.13-9.03l.07-51.6zm-108.12-.06l-26.67 76.36c5.35.05 10.67.13 16.02-.1 1.56-5.5 3.47-10.9 5.2-16.35l27.53.03 5.5 16.4h15.8l-26.63-76.37-16.74.02z" id="V"/><path d="M197.6 776.3l20.4.05c3.43-.03 7 2.33 7.65 5.8.47 3.7.42 7.36-2.32 10.2-2.04 2.1-4.55 2.26-7.32 2.33-6.13.05-12.27-.02-18.4-.01V776.3z" id="W"/><path d="M442.38 777.36c6.53-.26 13.12-.1 19.65-.08 3.58-.14 6.7 2.17 8.26 5.28.93 3.77.73 8.56-2.28 11.4-2.16 2.17-5.15 2.27-8 2.4-5.92.05-11.8.4-17.7.1.07-6.36-.2-12.75.08-19.1z" id="X"/><path d="M688.94 780.74l.33.57c1.74 4.26 2.8 8.8 4.2 13.18 1.6 5.63 3.64 10.9 4.64 16.67h-18.2l9.03-30.42z" id="Y"/><path d="M197.6 806.5c6.13.01 12.28-.12 18.4.1 2.9.07 5.64.63 7.93 2.5 4.95 4.02 4.9 12.86-.15 16.76-2.67 2.02-6.6 1.92-9.8 2.06-5.46-.05-10.9.17-16.36.42l-.03-21.83z" id="Z"/><path d="M107.67 880.34c3.42-.3 6.9-.12 10.33-.15l790.44.06v117.58l-12.44.07H121c-4.48.01-8.96.03-13.44-.07l.1-117.5zm687.23 60.72l-2.2.24c4.9.64 9.53 2.14 14.32 3.2 4.6 1.18 10.28 2.38 14 5.5 4.02 3.48 3.1 9.95-1.05 12.9-4.57 3.17-10.62 3.12-15.96 2.88-7.36-.42-13.4-6.23-14.23-13.54l-14.54.34c-.26 9.3 5.54 17.52 13.54 21.8 7.56 4.02 16.76 4.62 25.14 3.75 6.77-.92 13.5-2.83 18.58-7.66 6.2-5.63 8.37-14.6 6.63-22.64-1.37-5.3-5.8-9.2-10.52-11.62-8.28-4.27-18.86-5.5-27.38-8.6-2.85-1.13-6.04-2.5-7.44-5.43-1.07-3.33.5-7.08 3.3-9.06 4.42-3.1 9.77-3.24 14.96-2.82 3.7.38 7.25 2.18 9.26 5.4 1.2 1.9 1.33 3.9 1.74 6.07 4.98 0 9.95-.14 14.92-.3-.37-6.68-2.9-12.98-8.14-17.3-6.1-5-14.1-6.63-21.8-6.73-7.42-.1-14.8 1.25-20.94 5.65-7.53 5.42-11.1 15.77-8.94 24.7 1.95 7.43 9.77 11.78 16.8 13.26zm-593 35.45a384.64 384.64 0 0 0 15.19-.03c1.2-4.47 2.8-8.86 4.26-13.26l21.3-62.85c-5.62-.2-11.23-.15-16.85-.08-5.3 18.6-9.9 37.53-16.24 55.8-2-4.5-3.3-9.2-4.77-13.9l-11.73-41.92c-5.6.01-11.25-.2-16.85.1.85 3.3 2.08 6.48 3.16 9.7 4.35 12.2 8.34 24.52 12.5 36.8l10.02 29.66zm86.46.05l56.1-.02-.06-12.83-40.1.01.06-21.16 35.04-.03.01-13.04-35.04-.03c-.13-5.52-.07-11.02-.06-16.55l40.13-.1-.02-12.6c-18.64.1-37.38-.16-56 .13l-.07 76.2zm110-76.72l.03 76.62 16-.04.01-30.92c6.98.15 14.4-.72 21.27.4 4.25 1.7 5.82 7.24 6.5 11.33.72 6.36 1.27 12.72 1.53 19.1 5.35.13 10.7.08 16.05.1-2.9-9.43-1.15-19.3-4.7-28.3-1.9-4.7-5.65-6.9-10-9.03 3.62-1.87 7.22-2.8 9.98-6.07 4.26-4.57 3.87-10.14 3.65-15.96-.22-6.23-4.65-11.3-10.18-13.74-8.86-4.1-17.12-2.95-26.53-3.1-7.98-.1-15.74.27-23.63-.4zm117.37 76.63c5.52.15 11.03.08 16.55.08l-.02-76.32c-5.32.1-10.66-.2-15.97.12-.92 2.67-.48 5.85-.55 8.65l-.01 67.47zm179.9-76.23c-6.12 16.5-11.55 33.23-17.57 49.77-3.06 8.83-6.37 17.6-9.1 26.53 5.38.02 10.67.1 16.02-.1 1.3-5.47 3.33-10.64 4.88-16.02 9.23-.34 18.48-.1 27.7-.15L723 976.5l15.9.02-26.73-76.12c-5.47-.44-11.05-.04-16.54-.17zm-119.2.37l.02 12.84 23 .05v63.07l15.97-.04.02-63.08 22.93-.02v-12.8l-61.94-.02z" id="a"/><path d="M414.6 912.84c7.2.33 14.9-1.03 21.93.5 4.77 1.1 7.44 5.7 6.65 10.4-.68 3.93-2.86 7.5-7.1 8.12-7.02 1.13-14.4.34-21.5.58l.02-19.6z" id="b"/><path d="M703.88 915.95c3.1 10.44 6.72 20.83 9.1 31.45h-18.47l9.36-31.45z" id="c"/></defs><g transform="matrix(.978044 0 0 .978044 239.315435 5.720125)"><g fill="#4c4d3d"><use xlink:href="#A" y="-4.09"/><use xlink:href="#B" y="-4.09"/><use xlink:href="#C" y="-4.09"/><use xlink:href="#D" y="-4.09"/><use xlink:href="#E" y="-4.09"/><use xlink:href="#F" y="-4.09"/><use xlink:href="#G" y="-4.09"/><use xlink:href="#H" y="-4.09"/><use xlink:href="#I" y="-4.09"/><use xlink:href="#J" y="-4.09"/></g><use fill="#fff" xlink:href="#K" y="-4.09"/><g fill="#4c4d3d"><use xlink:href="#L" y="-4.09"/><use xlink:href="#M" y="-4.09"/><use xlink:href="#N" y="-4.09"/></g><use fill="#fff" xlink:href="#O" y="-4.09"/><g fill="#4c4d3d"><use xlink:href="#P" y="-4.09"/><use xlink:href="#Q" y="-4.09"/><use xlink:href="#R" y="-4.09"/><use xlink:href="#S" y="-4.09"/><use xlink:href="#T" y="-4.09"/><use xlink:href="#U" y="-4.09"/><use xlink:href="#V" y="-4.09"/><use xlink:href="#W" y="-4.09"/><use xlink:href="#X" y="-4.09"/><use xlink:href="#Y" y="-4.09"/><use xlink:href="#Z" y="-4.09"/></g><g fill="#c20035"><use xlink:href="#a" y="-4.09"/><use xlink:href="#b" y="-4.09"/><use xlink:href="#c" y="-4.09"/></g></g></svg>