<svg xmlns="http://www.w3.org/2000/svg" xmlns:xlink="http://www.w3.org/1999/xlink" viewBox="0 0 1400 980" width="100" height="100" shape-rendering="geometricPrecision" image-rendering="optimizeQuality" fill-rule="evenodd"><defs><path d="M378.3 24.8l9.28.05 15.26 40.44 15.2-40.66 9.1-.05.28 49.14-6.5-.1-.1-39.9-14.78 39.93-6.1.2-11.2-29.8c-1.37-3.3-2.58-6.6-3.42-10.1-.58 13.26.12 26.57-.43 39.83-2.2.01-4.38 0-6.57-.03V24.8z" id="A"/><path d="M365.47 25.5l1.02 5.72c-9 1.36-18.07 2.77-27.16 3.5.54 5.07 1.36 10.1 2.12 15.14 8.44-.7 16.6-2.16 24.96-3.3l.8 5.98c-8.32 1.23-16.7 1.94-25.03 3.22.44 5.47 1.27 10.88 2.12 16.3 9.1-.98 18.15-2.5 27.3-3.27.22 1.76.47 3.53.58 5.3-1.95.7-4.14.78-6.2 1.1-9.32 1.14-18.7 3.03-28.1 3.42-.44-10.6-2.88-21.07-3.93-31.62-.46-5.76-1.76-11.45-1.84-17.22 11.17-.77 22.2-3.03 33.35-4.25z" id="B"/><path d="M322.57 31.6l1.47 5.76c-5.28 1.16-10.5 2.35-15.64 4.07l10.42 41.9-6.53 1.65-10.52-41.94c-5.42.92-10.6 2.82-16.03 3.67l-1.14-5.54 37.97-9.58z" id="C"/><path d="M491.93 35.1c6.67 3.58 10.52 10.42 9.73 18.03-2.26-.52-4.53-1.06-6.77-1.7-.24-3.18-.52-6.06-2.86-8.45-4.17-4.57-10.45-5.67-16.3-4.3-4.3 1.4-7.65 4.68-9.52 8.76-3.04 6.04-4.27 13.92-2.12 20.4 2.7 8 12.17 12 19.9 9.06 4.36-2.07 6.78-5.8 8.24-10.27l6.48 1.52c-1.63 7.2-7.86 14.23-15.44 15.2-7.8 1.17-17.12-1.12-22.3-7.44-4.93-5.72-5.62-14.58-4.2-21.68 1.14-7.28 5.2-14.9 11.57-18.87 7.1-4.4 16.26-3.75 23.58-.24z" id="D"/><path d="M517.64 42.4L549.52 54l-2.04 5.42-25.53-9.2c-1.73 4.82-3.76 9.46-4.97 14.45 3.1 1 6.2 2 9.23 3.17 4.8 1.96 9.8 3.12 14.45 5.5l-2.26 5.25c-7.84-3.02-15.77-5.82-23.7-8.56-1.7 5.17-3.8 10.18-5.46 15.36 8.43 3.35 17.03 6.23 25.55 9.33l-1.5 5.3c-10.95-2.9-21.44-7.72-32.28-11.08 1.2-6.2 4.22-12 6.03-18.07 3.74-9.4 6.53-19.23 10.6-28.47z" id="E"/><path d="M266 47.76c3.63-.32 7.38.88 10.35 2.94 2.14 1.77 3.64 4.5 5.13 6.83a56.35 56.35 0 0 1-6.44 2.36c-1.3-2.14-2.5-4.1-4.88-5.2-5.08-2.3-11.7.28-15.45 4-3.33 3.36-2.17 10.95 3.22 11.27 7.55 1.04 17.5-3.4 25.63-.72 5.8 1.57 8.45 8.34 7.96 13.8-1 7.02-6.83 11.33-12.87 14.03-5.98 2.36-13.55 3.2-19.3-.2-3.44-2.05-5.17-5.2-6.73-8.74 1.88-.74 4.02-2.1 6.08-1.74 2.54 3.95 5.37 6.63 10.3 6.84 4.58-.1 10.35-2.32 13.64-5.6 3.8-3.36 2.78-10.35-2.04-12.2-4.1-1.45-9.37-.18-13.6.45-5.34.86-11.53 1.84-16.3-1.4-5.43-4.17-6.1-13.34-1.6-18.45 4.1-5.06 10.54-7.72 16.9-8.28z" id="F"/><path d="M561.8 59.35c6.62 3.17 13.17 6.67 19.76 9.95 3.92 1.9 7.16 4.86 8.5 9.1 1.5 5.9-1.43 12.02-6.32 15.34-2.25 1.2-5.18 1.3-7.66 1.7l2.1 1.5c1.96 5.2.07 9.5-2.17 14.2-1.58 3-1.84 6.17-2.47 9.46-2.14-1.14-4.3-2.2-6.5-3.25.65-5.83 5.24-11.1 5.3-17.38-.25-2.72-2.07-4.38-4.33-5.6-4.64-2.5-9.32-4.9-14.07-7.16-2.93 6.23-6.47 12.16-9.1 18.5-2.27-.92-4.4-2-6.52-3.23 7.48-14 14.45-28.32 21.73-42.44.26-.86.84-1.1 1.74-.7zm-4.82 22.76c6.02 2.53 11.84 7 18.3 8.05 5.22.18 7.77-4.64 8.23-9.2-.43-3.12-2.16-5.32-5-6.62-4.78-2.3-9.4-4.96-14.22-7.16-2.52 4.9-5.42 9.74-7.3 14.92z" id="G"/><path d="M231.08 61.82l3.44-.84L232.1 90c-.08 1.78-.65 4.06.22 5.68 2.37 4.85 5.1 9.55 7.65 14.3.5.9.78 1.83.88 2.8-1.83 1.2-3.85 2.02-5.86 2.88-2.6-5.2-5.4-10.36-8.18-15.47-1.32-2.7-3.7-3.48-6.12-4.88-8.53-4.45-16.78-9.5-25.47-13.65 2.17-1.62 4.5-2.94 6.88-4.23 7.62 4.15 15.24 8.47 22.7 12.9l1.44.07c.2-8.87.8-17.65 1.5-26.5l3.36-2.1z" id="H"/><path d="M600.34 79.6c11.13 6.75 21.6 14.64 32.7 21.47-.75 1.77-1.7 3.42-2.74 5.03-4.9-2.42-9.22-5.97-13.88-8.84l-23.74 35.8c-1.9-.76-3.64-1.8-5.35-2.93l-.1-1.76 23.53-34.77c-4.12-3.16-8.6-5.76-12.86-8.72-1.1-1.25 1.92-4.08 2.43-5.28z" id="I"/><path d="M187.2 91.85c3.88.86 6.4 3.36 9.04 6.13-1.64 1.4-3.35 2.7-5.1 3.93-1.66-1.4-3.17-2.93-5.3-3.55-3.5-1.32-7.4.14-10.26 2.28-2.34 1.8-4.98 3.9-5.57 6.96-1 3.68 1.9 8.46 5.95 8.33 9.2-1.02 15.3-7.52 25.07-7.1 6.93.02 12.1 7.52 11.57 14-.96 6.98-5.98 12.68-12.02 15.97-4.8 2.9-10.7 4.56-16.18 2.72-3.7-1.23-5.95-3.86-8.4-6.7 1.62-1.23 3.32-2.6 5.15-3.52 1.9 1.34 3.27 3.02 5.5 3.88 3.96 1.72 8.84-.1 12.3-2.2 2.93-2.08 6.67-5.15 7.1-8.96.75-4.07-2.82-8.67-7.03-8.6-8.46.86-16.5 7.94-25.04 7.2-5.2.02-8.45-4.24-10-8.72-1.9-5.57 1.15-11.8 5.22-15.6 4.72-4.47 11.35-7.93 18-6.43z" id="J"/><path d="M639.42 107.02c2.15 1.26 4 2.8 5.98 4.3-2 1.16-3.3 3.5-4.78 5.24l-26.4 33.15-4.86-4.2c.92-2.43 3.14-4.42 4.67-6.5l25.38-32z" id="K"/><path d="M655.62 119.7c8.02 7.23 16 14.6 23.67 22.2l-3.22 3.58-1.37.12c-5.78-5.88-12.06-11.2-17.98-16.9-3.52 3.62-6.93 7.34-10.34 11.06l16.4 15.26c-1.2 1.35-2.43 2.85-3.9 3.92-6.1-4.05-10.7-10.46-16.74-14.66l-14.57 15.47c-1.8.23-3.7-2.4-5.1-3.38l.04-1.43c11.2-11.57 21.9-23.7 33.1-35.23z" id="L"/><path d="M135.58 126.02c2.1 6.7 2.95 13.68 4.8 20.46 1.2 4.25 1.67 8.7 2.9 12.92 4.5 5.1 9.9 9.52 14.5 14.6l-4.86 4.8c-4.24-4-8.22-8.23-12.44-12.23-.8-.7-1.67-1.6-2.7-1.9-5.75-1.7-11.75-2.32-17.65-3.57-5.07-1.07-10.07-2.37-15.24-2.96 1.28-2.36 2.98-4.4 5.27-5.8 8.92 1.2 17.75 3.9 26.62 5.45-2.3-8.72-4.25-17.5-6.5-26.24 1.8-1.8 3.56-3.65 5.3-5.5z" id="M"/><path d="M685.98 149.32l4.68 4.8c-2.1 2.48-4.48 4.65-6.93 6.78-9.72 8.52-18.93 17.73-28.85 26-2.04.01-3.58-2.8-5.04-3.97 2.6-3.4 6.2-5.8 9.18-8.9l26.96-24.7z" id="N"/><path d="M101.57 161.33c1.9.43 3.48 2.25 4.97 3.43-3.4 4.2-7.02 8.35-9.78 13l34.05 26.26-4.2 5.5-34.4-26.56-10.04 13.13c-1.2-1.15-2.5-2.06-3.78-3.16l.07-2.08c7.93-9.64 15.34-19.74 23.1-29.52z" id="O"/><path d="M705.28 173.5c9.15 4.7 15.38 15.45 12.6 25.8-.97 2.94-2.85 5.18-4.74 7.55-1.27-1.7-2.97-3.42-3.8-5.35.82-2.9 3.15-5.13 3.04-8.5-.47-7.42-6.6-14.64-14.25-15.15-5.53-.5-10.66 2.22-15 5.37-3.63 2.87-7.12 6.77-8.6 11.23-2.73 7.25 2.34 15.85 9.1 18.75 4.82 1.44 9.17.1 13.44-2.2 1.4 1.83 2.73 3.7 3.95 5.65-5.03 2.4-10.14 4.47-15.84 3.34-9.78-2-17.55-12.18-17.9-22 .1-9.64 7-17.83 14.98-22.5 7.04-4.13 15.43-5.6 23.02-2z" id="P"/><path d="M73.14 199.83c1.9.68 3.63 1.7 5.3 2.83l35.1 22.97c1.58 1.04.12 2.25-.47 3.38-.9.97-1.77 3.54-3.45 2.35L69.6 205.2l3.55-5.37z" id="Q"/><path d="M738.92 220.62l3.44 6.3-33.34 40.86c-1.2-2.06-3.48-4.46-3.55-6.9 2.86-3.63 6.14-6.93 8.97-10.58.94-1.05-.05-2.33-.48-3.36l-8.78-15.36c-5.2.84-10.28 1.93-15.55 2.3l-3.36-5.98c6.87-1.3 13.8-1.95 20.72-2.9 10.6-1.67 21.24-3.4 31.93-4.4zm-27.42 9.9c2.5 4.63 5.2 9.14 7.7 13.76 5.56-5.5 10.38-11.78 15.6-17.6-7.77 1.26-15.46 2.87-23.28 3.85z" id="R"/><path d="M102.75 233.04l5.17 2.47c-4.84 9.83-10.5 19.26-15.56 29L49.14 241c.93-2.1 1.97-4.12 3.08-6.12 12.84 6.63 25.4 13.84 38.13 20.66 3.9-6.54 7.38-13.35 11.05-20.02l1.35-2.47z" id="S"/><path d="M750.04 240.64l7.76 17.53c2.55 6.16 5.77 12.22 7.9 18.52-1.6.9-3.38 1.57-5.08 2.3-2.4-4.83-4.32-9.87-6.58-14.76-13.3 5.47-26.38 11.62-39.6 17.24-1.38-1.8-2.05-4.28-2.84-6.38 13.18-5.45 26.1-11.55 39.27-17.06-1.18-5.3-4.5-9.75-5.8-14.96.73-1.47 3.6-1.72 4.96-2.42z" id="T"/><path d="M37.73 266.28l52.77.6-2.55 6.8c-5.35.18-10.67-.17-16-.18-1.92 5.22-4.12 10.3-6.18 15.47-.54 1.66-1.35 3.58.33 4.87 3.34 2.98 6.74 5.86 9.9 9.05a43.48 43.48 0 0 1-2.75 6.39c-3.24-2.94-6.53-5.8-9.66-8.87l-28.77-27.4c1.02-2.23 2-4.5 2.93-6.75zm4.4 6.04l2.98 2.65c5.05 4.22 9.62 8.96 14.8 13 1.8-4.93 3.8-9.75 5.88-14.57l-23.67-1.1z" id="U"/><path d="M768.68 285.27c.86 1.93 1.4 3.95 1.97 5.97l-30.54 10.62c-5.52 1.6-10.56 4.1-16.23 5.22-.74-2.07-1.36-4.15-1.82-6.3l37.02-12.82c3.02-1 6.4-2.78 9.6-2.68z" id="V"/><path d="M155.64 293.55c3.4-.43 6.93-.25 10.36-.27l67 .02c5-.13 9.97-.8 15-.6l183 .02 18-.17h178l15.45-.1c1.4 4.6.7 8.83.78 13.55l.01 52c.1 4.2.05 8.35-.65 12.5l-383.6.1c-7.1.16-14-.33-21 .48-4.43.47-8.55-.35-13-.32l-47 .01c-7.58-.23-14.75 1.27-22.3-.4l-.06-76.8z" id="W"/><path d="M25 300.13c6.7 1.17 13.36 3.1 19.95 4.84 5.33 1.33 11.34 2.38 16.3 4.78 4.06 1.94 7.3 5.78 8.3 10.2a28.8 28.8 0 0 1-3.26 18.49c-2.13 4.33-6.4 7.72-11.3 8.17-7.94.96-15.47-2.45-23.1-4.1-5.62-1.15-11.08-2.88-16.66-4.22.5-2.3 1.17-4.53 2.15-6.67 6.05 2.06 12.4 3.04 18.53 4.9 5 1.1 9.96 2.75 15.04 3.4 5.15.54 9.72-2.62 11.48-7.4 1.9-4.43 2.47-10.16-.98-14-3.52-3.75-7.8-4.18-12.5-5.4-8.5-2.4-17.12-4.2-25.58-6.72.5-2.1.97-4.2 1.6-6.25z" id="X"/><path d="M752.34 307.4c6.97-1.6 14.4-.16 20.4 3.68 9.35 6.84 12.7 21.83 5.96 31.57-3.44 5.5-8.9 8.56-14.9 10.6-9.27 2.6-19.47 1.8-26.62-5.24-6.84-7.34-9.23-19.74-3.6-28.47 4.05-6.83 11.24-10.47 18.78-12.13zm2.8 6.56c-6.6.97-12.9 4.05-16.65 9.76-3.23 5.47-2.3 12.6 1.15 17.72 3.57 5.13 10.46 6.7 16.36 6.26 4.83-.66 9.9-2 13.77-5.1 4.53-3.27 7.36-9.17 6.35-14.76-.8-3.77-2.04-7.34-5.06-9.9-4.03-3.92-10.58-4.72-15.92-3.97z" id="Y"/><path d="M38 353.37c6.96.55 13.3 3.96 17.93 9.12 1.7-1.76 3.5-4.76 5.98-5.36 1.42.92 2.55 2.35 3.72 3.55-2.2 2.05-4.58 4.1-6.38 6.5-.1 1.93.77 3.9 1.03 5.8 1.07 7.54-1.1 16.1-7 21.24-4.83 4.5-11.86 6.27-18.33 6.07-7.35-.13-14.96-2.72-20.14-8.07-9.5-9.85-7.26-28.77 4.84-35.56 5.66-3.56 11.85-3.75 18.34-3.3zm16.23 19.04c-1.73 1.5-3.42 3.02-5.1 4.57L45.3 373c2.04-1.97 4.02-3.97 5.9-6.07-7.12-7.56-20.3-9.28-29.23-4.05-8.1 5-9.86 17.35-3.04 24.17 7.48 7.34 21.13 8.92 29.7 2.67 5.5-4.22 6.75-10.77 5.6-17.32z" id="Z"/><path d="M787.52 360.8l.7 7.15-36.65 28.92 38.87-3.37.43 6.4c-16.34 1.75-32.74 2.86-49.1 4.35l-.3-7.4 36.4-28.6-38.97 3.3-.5-6.15c16.35-1.96 32.72-3.2 49.1-4.58z" id="a"/><path d="M156.57 396.82c4.1-.43 8.3-.12 12.43-.2l474.17-.26c.05 4.48.46 8.78-.54 13.2l-82.63-.1-400 .24c-1.2-.15-3.2.24-4.15-.63-.26-3.73-.26-7.67-.05-11.4l.78-.86z" id="b"/><path d="M155.85 422.64l137.15-.28 350.18-.03-.1 25.86c-18.7.23-37.4-.16-56.07.25-63.33-.01-126.67 0-190-.01-3.67-.01-7.33.2-11 .2-63.33-.02-126.67 0-190-.01-13.42.26-26.87.3-40.3.08.18-8.68-.16-17.4.14-26.07z" id="c"/><path d="M748.95 424.76c3.36.98 6.1-.7 9.35.77.24 6.88-1.05 13.6-1.18 20.47-1.4 11.52-2.58 23.15-4.86 34.54-.16-2.9-.66-5.53.12-8.36.72-2.73 1.63-5.3 1.6-8.18.14-12.24 2.9-24.8 1.88-36.93-2.5-.08-4.98-.12-7.47.07-2.05 7.02-.85 13.94-1.98 21.03-.86 5.96-2.1 11.83-2.55 17.85-.68 8.06-3.06 15.2-4.6 23.14-.57 3.17-1.57 6.18-2.76 9.16 2.08-10 4.46-20.05 5.6-30.22 1.53-8.3 2.76-16.63 2.74-25.1.7-5.85 1.02-11.4.9-17.3 1.07-.33 2.14-.66 3.22-.94z" id="d"/><path d="M785.5 424.44c.23 14.2-1.67 28.47-3.24 42.55-9.58 74.2-41.75 145.03-90.8 201.48-9.4 11.15-20.05 21.3-30.47 31.5-29.96 27.56-64.33 50.37-101.32 67.35-1.68.78-3.45 1.2-5.24 1.6-.07-4.08-.02-8.15.05-12.23 5.15-2.66 10.45-5.02 15.6-7.68 34.7-17.9 66.7-41.05 94.14-68.82 59-58.53 97.53-137.56 106.9-220.17 1.42-11.77 2.53-23.54 2.58-35.4 3.93-.2 7.88-.15 11.8-.2z" id="e"/><path d="M25.43 425.5c.1 12.8 1.12 25.57 2.86 38.26 1.43 8.8 2.34 17.58 4.38 26.27 8.98 45.24 26.73 88.78 51.67 127.57 35.76 55.7 86.28 101.7 145.26 131.77 2.7 1.28 5.33 2.65 7.86 4.23-.12 4.07-.07 8.13-.04 12.2-3.55-.4-6.16-2.28-9.27-3.8-20.47-10.1-39.97-22.22-58.36-35.73-14.67-11.16-29.08-22.93-41.85-36.26-6-5.95-12.22-11.83-17.6-18.38-7.7-8.68-15.12-17.65-21.92-27.06-1.9-2.55-3.95-4.82-5.13-7.83-.12.3-.23.57-.34.86-2.37-4.66-5.7-8.7-8.38-13.18-2.94-4.95-6.4-8.75-7.68-14.43-2.53-.84-3.33-3.92-4.67-6.04C33.86 553.3 17.15 495.97 14 438c-.5-4.18-.42-8.35-.4-12.54l11.8.04z" id="f"/><path d="M41.43 425.73c3.92-.26 7.88-.04 11.8-.01.13 5.12.01 10.3.57 15.4.68 5.38.4 10.76 1.42 16.1-1.45-5.77-1.2-11.67-2.77-17.4-.93-3.78-.15-9.5-2.7-12.58-1.8-.32-5.4-.9-6.46 1.04-.86 7.43-.27 15.35.6 22.72 0 8.06.73 16.02 2.44 23.9.68 3 .82 6 .94 9.04-3.38-19.4-6.4-38.42-5.86-58.2z" id="g"/><path d="M49.76 427.23c2.55 3.1 1.77 8.8 2.7 12.58 1.57 5.74 1.32 11.64 2.77 17.4 2.86 23.24 7.8 46.15 15.32 68.33 15.5 46.5 41.08 89.54 74.4 125.47 16.78 18.08 35.26 34.4 55.47 48.56 11.78 8.14 23.92 16.17 36.8 22.43.17 4.3.15 8.6.15 12.9-3.95-.58-6.98-2.66-10.38-4.56-65.36-35.88-119.22-92.8-151.25-160.15-13.18-27.4-22.63-56.44-28.47-86.28-.12-3.04-.26-6.05-.94-9.04-1.7-7.87-2.44-15.83-2.44-23.9-.88-7.37-1.47-15.3-.6-22.72 1.06-1.94 4.66-1.36 6.46-1.04z" id="h"/><path d="M748.38 427.14c2.5-.2 4.98-.15 7.47-.07 1 12.12-1.74 24.7-1.88 36.93.04 2.88-.87 5.45-1.6 8.18-.78 2.83-.28 5.47-.12 8.36l-.12 1.15c-1.66 3.88-2.75 7.64-2.42 11.92-14.4 64.5-46.73 124.85-93.08 172.02-4.2 4.8-9.16 8.82-13.6 13.42-21.95 20.4-46.4 37.93-72.74 52.25-5.23 2.6-10.28 5.85-15.82 7.7-.16-4.35-.15-8.68.08-13.02 16.37-8.24 32.13-17.6 46.96-28.4 15.33-11.2 29.93-23.25 43.13-36.93 11.58-11.2 22.02-23.42 31.74-36.25 24.6-32.6 43.5-69.6 55.2-108.74 2.1-5.67 3-11.62 4.9-17.34 1.2-2.98 2.2-6 2.76-9.16 1.53-7.93 3.9-15.08 4.6-23.14.44-6.02 1.7-11.9 2.55-17.85 1.13-7.1-.07-14 1.98-21.03z" id="i"/><path d="M752.14 481.7c-.05 4.44-.6 7.85-2.42 11.92-.33-4.28.76-8.04 2.42-11.92z" id="j"/><path d="M202.02 487.38c8.18.35 17.78 1.6 23.83 7.7 5.27 5.57 6.22 12.54 6.24 19.92-.2 7.07.67 14.85-1.45 21.53-1.68 5.65-5.98 10.2-11.3 12.62-6.33 2.54-13.56 3.3-20.34 3.3-14.42-.05-28.85.06-43.27-.06l-.01-64.97 46.3-.04zm-33.4 53.5l33.42-.02c4.98-.07 11.35-1.1 14.72-5.16 3.12-3.96 2.6-9.96 2.62-14.7-.12-5.13.7-11.74-2.12-16.28-3.4-5.1-10.67-5.73-16.25-5.88-10.8.08-21.7-.24-32.48.16-.32 13.95.42 27.9.1 41.88z" id="k"/><path d="M259.3 487.43c2.9-.2 5.82-.18 8.7-.06 1.94-.13 3.4 1.76 4.84 2.87L320.54 534c.2-5.32.16-10.65-.04-15.98l-.13-30.8c4.34-.1 8.68-.13 13.02.06l-.07 64.9c-3.44 0-6.94.27-10.36-.1-2.54-1.05-4.45-3.74-6.5-5.52l-44.8-40.74.07 46.63c-4.18-.03-8.36-.03-12.54.02-.6-4.5-.3-8.95-.35-13.48l-.04-47c.04-1.6-.04-3.06.5-4.57z" id="l"/><path d="M350.86 487.3c5.02-.2 10.1-.32 15.1.13.6 1.54 1.26 3.03 2.06 4.48l23.72 44.35 25.9-49c4.8-.16 9.58-.08 14.37-.1l-35.68 65.1c-3.12-.05-6.26.12-9.37-.15-2.32-2.76-3.63-6.45-5.52-9.54l-30.58-55.27z" id="m"/><path d="M516 486.85l35-.03c1.85 0 3.7.2 5.53.43-.12 3.76-.1 7.5-.05 11.27-15.17-.14-30.32.26-45.48.15-5.1-.08-11 .8-14.63 4.7-2.9 3.1-2.9 7.65-2.9 11.62.15 5.03-.3 10.18.37 15.16.5 3.5 2.63 6.3 5.64 8.03 3.6 1.74 7.55 2.3 11.52 2.3l32.78-.03c.02-4.7-.1-9.4-.26-14.08-8.9.01-17.78.02-26.68-.01l.01-11.97h39.6v37.55c-13.47.28-26.97.02-40.45.13-6.8.1-13.4-.32-19.95-2.28-4.9-1.53-9.18-4.6-11.78-9.1-3.3-4.94-3.4-10.96-3.43-16.7.17-6.7-.54-13.75 1.07-20.18 1.53-5.88 5.96-10.93 11.46-13.45 7.4-3.08 14.73-3.3 22.63-3.52z" id="n"/><path d="M583.58 486.82c4.08.02 8.17.1 12.25-.06.6 17.9.01 35.84.3 53.74l47.17-.04.07 11.48-60.04.1V498c.01-3.7-.14-7.52.24-11.18z" id="o"/><path d="M456.64 512.43c-.03 4.93.15 9.84-.15 14.77-5.04-.2-9.88.28-14.88-.44.17-4.75.1-9.5.08-14.23 5-.14 9.97-.06 14.95-.1z" id="p"/><path d="M66.23 611.18c-1.26 3.3 2.78.34 0 0z" id="q"/><path d="M307.6 726.4c4.88 2.72 6.9 7.75 7.06 13.14l-6.3.07c-.67-2.32-1.07-4.47-2.75-6.33-2.25-2.87-6.2-3.54-9.63-3.6-3.13.15-6.98.84-9 3.5-1.75 2.4-2.15 6.5.2 8.63 2.98 2.53 7.56 3.32 11.28 4.05 4.88.85 10.35 2.33 14.37 5.33 5.52 5.07 5.35 14.44-.3 19.36-4.1 3.9-9.12 4.5-14.54 4.84-6.2.01-12.17-1.06-16.6-5.8-3.45-3.2-4.1-7.3-4.1-11.84l5.96-.01c.66 2.64 1 5.07 2.76 7.25 2.62 3.12 6.93 4.65 10.94 4.64 3.4.08 7.35-.22 10.04-2.57 4-2.56 3.9-10.24-.8-12.05-6-3.03-13.5-3.34-19.75-5.72-3.4-1.5-6.3-3.74-7.45-7.4-1.37-5.57.74-12.18 5.94-15.03 6.77-3.9 15.7-3.86 22.66-.44z" id="r"/><path d="M338.53 724.73c8.37-2.16 18.4-.32 24.03 6.7 7.84 9.02 8.13 24.05 1.9 34.02-7.73 12.94-29.4 13.26-37.88.98-7.05-10.18-6.7-25.13 1-34.88 2.8-3.5 6.65-5.7 10.97-6.83zm.92 5.85c-6 2.3-9.4 7.86-10.45 14-1.35 6.95.04 15.93 5.5 20.93 5.57 5.48 15.53 5.58 21.2.2 4.35-4.03 6.3-9.83 6.1-15.7.24-6.14-1.54-12.4-6.25-16.55-3.98-4.06-10.96-4.52-16.1-2.87z" id="s"/><path d="M262.55 725.4c2.25-.24 4.57-.14 6.83-.1l-.05 49h-6.8l.02-48.9z" id="t"/><path d="M479.66 725.97c3-.74 6.27-.68 9.34-.43 4.9.44 9.15 4.36 10.72 8.9 2.47 6.1 2 13.05 2 19.55-.08 6.26-1.1 13.3-6.04 17.7-3.85 3.64-9.8 3.3-14.68 2.78-6.27-.98-10.12-7.2-11.1-13.03-.87-6.75-.8-13.67-.3-20.45.56-6.3 3.6-13 10.07-15.02zm3.87 4.82c-6.3 1.66-7.4 8.65-7.84 14.18-.13 6.73-.7 15.47 3.1 21.36 3.6 4.52 10.47 4.2 13.68-.6 2.93-4.58 2.68-11.46 2.82-16.73-.17-4.16-.33-8.64-1.72-12.6-1.54-3.93-5.8-6.64-10.03-5.6z" id="u"/><path d="M524.52 725.37c1.55-.18 3.16-.04 4.72.03l-.07 37.6c-.05 3.85.38 7.47-.54 11.27-1.75-.01-3.5 0-5.25.03-.26-1.43-.57-2.83-.58-4.3l-.02-30.8-12.5-.04.06-4.6c3.55-.58 8.18-.62 10.8-3.43 1.75-1.62 2.28-3.7 3.4-5.76z" id="v"/><path d="M407 725.45c4.18-.12 8.3.02 11.6 2.9 4.36 3.4 5.88 9.37 6.57 14.6.58 8.98.46 18.5-4.5 26.36-4.5 6.46-14.07 6.9-20.68 3.83-4.3-2.26-6.04-6.28-6.58-10.92l5.92-.02c.6 1.43 1.1 3.15 2.12 4.32 3.2 3.9 10.02 4.16 13.36.26 3.83-4.04 3.65-10.3 4.28-15.5-4.92 8.74-18.3 8.3-23.8.52-3.45-5.6-3.8-13.5-.62-19.3 2.57-4.2 7.4-7.02 12.34-7.07zm-1.82 5.76c-6.6 2.1-8.4 12.73-3.82 17.56 2.96 3.62 8.32 4.5 12.2 1.86 6.3-4 5.96-15.1-.6-18.7-2.23-1.4-5.32-1.4-7.8-.73z" id="w"/><path d="M440.4 726.46c3.62-1.4 8-1.2 11.78-.67 5.88 1.3 9.52 6.47 10.47 12.2 1.38 8.07 1.5 17.02-.16 25.05-1.1 5.78-5.35 10.94-11.47 11.56-4.64.4-10.12.63-13.77-2.8-3.97-3.15-5.26-9-5.9-13.8-.8-7.34-.73-15.14 1.33-22.28 1.02-4 3.96-7.6 7.72-9.27zm3.82 4.82c-3.04 1.24-5.2 4.54-5.77 7.7-1.12 5.54-.97 11.4-.7 17.04.34 3.77.8 7.9 3.46 10.83 3.14 3.7 9.5 3.65 12.5-.25 3.25-3.88 3.46-9.8 3.56-14.6.03-5.58.26-12.67-2.9-17.53-2.1-3.42-6.5-4.75-10.16-3.2z" id="x"/></defs><g transform="matrix(1.225 0 0 1.225 210 0)"><g fill="#030d49" transform="matrix(1.046033 0 0 1.046033 -11.350023 -16.337992)"><use xlink:href="#A"/><use xlink:href="#B"/><use xlink:href="#C"/><use xlink:href="#D"/><use xlink:href="#E"/><use xlink:href="#F"/><use xlink:href="#G"/><use xlink:href="#H"/><use xlink:href="#I"/><use xlink:href="#J"/><use xlink:href="#K"/><use xlink:href="#L"/><use xlink:href="#M"/><use xlink:href="#N"/><use xlink:href="#O"/><use xlink:href="#P"/><use xlink:href="#Q"/><use xlink:href="#R"/><use xlink:href="#S"/><use xlink:href="#T"/><use xlink:href="#U"/><use xlink:href="#V"/></g><use fill="#8cd7f7" transform="matrix(1.046033 0 0 1.046033 -11.350023 -16.337992)" xlink:href="#W"/><g fill="#030d49"><use transform="matrix(1.046033 0 0 1.046033 -11.350023 -16.337992)" xlink:href="#X"/><use transform="matrix(1.046033 0 0 1.046033 -11.350023 -16.337992)" xlink:href="#Y"/><use transform="matrix(1.046033 0 0 1.046033 -11.350023 -16.337992)" xlink:href="#Z"/><use transform="matrix(1.046033 0 0 1.046033 -11.350023 -16.337992)" xlink:href="#a"/></g><use fill="#61b950" transform="matrix(1.046033 0 0 1.046033 -11.350023 -16.337992)" xlink:href="#b"/><use fill="#0159ab" transform="matrix(1.046033 0 0 1.046033 -11.350023 -16.337992)" xlink:href="#c"/><g fill="#02baf1"><use transform="matrix(1.046033 0 0 1.046033 -11.350023 -16.337992)" xlink:href="#d"/><use transform="matrix(1.046033 0 0 1.046033 -11.350023 -16.337992)" xlink:href="#e"/><use transform="matrix(1.046033 0 0 1.046033 -11.350023 -16.337992)" xlink:href="#f"/><use transform="matrix(1.046033 0 0 1.046033 -11.350023 -16.337992)" xlink:href="#g"/><use transform="matrix(1.046033 0 0 1.046033 -11.350023 -16.337992)" xlink:href="#h"/><use transform="matrix(1.046033 0 0 1.046033 -11.350023 -16.337992)" xlink:href="#i"/></g><use fill="#8cd7f7" transform="matrix(1.046033 0 0 1.046033 -11.350023 -16.337992)" xlink:href="#j"/><g fill="#030d49"><use transform="matrix(1.046033 0 0 1.046033 -11.350023 -16.337992)" xlink:href="#k"/><use transform="matrix(1.046033 0 0 1.046033 -11.350023 -16.337992)" xlink:href="#l"/><use transform="matrix(1.046033 0 0 1.046033 -11.350023 -16.337992)" xlink:href="#m"/><use transform="matrix(1.046033 0 0 1.046033 -11.350023 -16.337992)" xlink:href="#n"/><use transform="matrix(1.046033 0 0 1.046033 -11.350023 -16.337992)" xlink:href="#o"/><use transform="matrix(1.046033 0 0 1.046033 -11.350023 -16.337992)" xlink:href="#p"/></g><use fill="#02baf1" transform="matrix(1.046033 0 0 1.046033 -11.350023 -16.337992)" xlink:href="#q"/><g fill="#030d49"><use transform="matrix(1.046033 0 0 1.046033 -11.350023 -16.337992)" xlink:href="#r"/><use transform="matrix(1.046033 0 0 1.046033 -11.350023 -16.337992)" xlink:href="#s"/><use transform="matrix(1.046033 0 0 1.046033 -11.350023 -16.337992)" xlink:href="#t"/><use transform="matrix(1.046033 0 0 1.046033 -11.350023 -16.337992)" xlink:href="#u"/><use transform="matrix(1.046033 0 0 1.046033 -11.350023 -16.337992)" xlink:href="#v"/><use transform="matrix(1.046033 0 0 1.046033 -11.350023 -16.337992)" xlink:href="#w"/><use transform="matrix(1.046033 0 0 1.046033 -11.350023 -16.337992)" xlink:href="#x"/></g></g></svg>