<svg width="37" height="32" viewBox="0 0 37 32" fill="none" xmlns="http://www.w3.org/2000/svg">
<path d="M20.1105 30.4258C20.1105 28.7689 21.4536 27.4258 23.1105 27.4258H33.5646C35.2214 27.4258 36.5646 28.7689 36.5646 30.4258V31.0823H20.1105V30.4258Z" fill="#858585"/>
<path d="M23.7671 22.9375C23.7671 22.3852 24.2148 21.9375 24.7671 21.9375H31.9083C32.4606 21.9375 32.9083 22.3852 32.9083 22.9375V27.4222H23.7671V22.9375Z" fill="url(#paint0_linear_5885_1060)"/>
<path d="M23.7671 22.9375C23.7671 22.3852 24.2148 21.9375 24.7671 21.9375H31.9083C32.4606 21.9375 32.9083 22.3852 32.9083 22.9375V27.4222H23.7671V22.9375Z" fill="black" fill-opacity="0.2"/>
<rect x="1.82825" y="14.625" width="7.31294" height="16.4541" fill="url(#paint1_linear_5885_1060)"/>
<rect x="1.82825" y="14.625" width="7.31294" height="16.4541" fill="black" fill-opacity="0.2"/>
<path d="M0 25.7695C0 24.665 0.895431 23.7695 2 23.7695H8.96942C10.074 23.7695 10.9694 24.665 10.9694 25.7695V31.0825H0V25.7695Z" fill="url(#paint2_linear_5885_1060)"/>
<path d="M0 25.7695C0 24.665 0.895431 23.7695 2 23.7695H8.96942C10.074 23.7695 10.9694 24.665 10.9694 25.7695V31.0825H0V25.7695Z" fill="black" fill-opacity="0.2"/>
<path d="M13.0088 3.73828L15.2054 8.03053L10.1155 10.9692L7.91885 6.67696L13.0088 3.73828Z" fill="url(#paint3_linear_5885_1060)"/>
<path d="M13.0088 3.73828L15.2054 8.03053L10.1155 10.9692L7.91885 6.67696L13.0088 3.73828Z" fill="black" fill-opacity="0.2"/>
<path fill-rule="evenodd" clip-rule="evenodd" d="M26.2875 16.8949L24.1328 14.022L25.282 13.1602L27.4367 16.0331C27.6747 16.3504 27.6103 16.8006 27.293 17.0386C26.9757 17.2766 26.5255 17.2123 26.2875 16.8949Z" fill="#A2A2A2"/>
<path d="M25.5999 11.2114C26.304 12.1517 26.1126 13.4849 25.1722 14.1891C24.2318 14.8932 22.8987 14.7018 22.1945 13.7614L17.907 8.03574L21.3124 5.48571L25.5999 11.2114Z" fill="url(#paint4_linear_5885_1060)"/>
<path d="M25.5999 11.2114C26.304 12.1517 26.1126 13.4849 25.1722 14.1891C24.2318 14.8932 22.8987 14.7018 22.1945 13.7614L17.907 8.03574L21.3124 5.48571L25.5999 11.2114Z" fill="black" fill-opacity="0.1"/>
<path fill-rule="evenodd" clip-rule="evenodd" d="M5.48471 16.4499C8.51383 16.4499 10.9694 13.9943 10.9694 10.9652C10.9694 7.93606 8.51383 5.48047 5.48471 5.48047C2.45559 5.48047 0 7.93606 0 10.9652C0 13.9943 2.45559 16.4499 5.48471 16.4499ZM5.48475 14.6191C7.50417 14.6191 9.14122 12.982 9.14122 10.9626C9.14122 8.94319 7.50417 7.30614 5.48475 7.30614C3.46534 7.30614 1.82828 8.94319 1.82828 10.9626C1.82828 12.982 3.46534 14.6191 5.48475 14.6191Z" fill="#979797"/>
<path fill-rule="evenodd" clip-rule="evenodd" d="M17.3684 9.14118C19.8927 9.14118 21.939 7.09485 21.939 4.57059C21.939 2.04632 19.8927 0 17.3684 0C14.8442 0 12.7979 2.04632 12.7979 4.57059C12.7979 7.09485 14.8442 9.14118 17.3684 9.14118ZM17.3682 7.31046C18.8828 7.31046 20.1106 6.08267 20.1106 4.56811C20.1106 3.05355 18.8828 1.82575 17.3682 1.82575C15.8537 1.82575 14.6259 3.05355 14.6259 4.56811C14.6259 6.08267 15.8537 7.31046 17.3682 7.31046Z" fill="#979797"/>
<g opacity="0.5">
<path fill-rule="evenodd" clip-rule="evenodd" d="M19.8213 17.7803C19.7851 17.4966 19.9859 17.2372 20.2697 17.201L23.5196 16.7868C23.8034 16.7506 24.0627 16.9514 24.0989 17.2351C24.1351 17.5189 23.9343 17.7783 23.6505 17.8145L20.4006 18.2287C20.1168 18.2649 19.8574 18.0641 19.8213 17.7803Z" fill="#555555"/>
<path fill-rule="evenodd" clip-rule="evenodd" d="M20.2227 21.9693C20.1033 21.7006 20.2488 21.3334 20.5478 21.1491L23.9708 19.0391C24.2697 18.8548 24.6088 18.9233 24.7282 19.192C24.8476 19.4606 24.702 19.8278 24.4031 20.0121L20.9801 22.1221C20.6812 22.3064 20.3421 22.238 20.2227 21.9693Z" fill="#555555"/>
</g>
<g opacity="0.5">
<path fill-rule="evenodd" clip-rule="evenodd" d="M32.3691 10.7577C32.1313 10.5301 31.754 10.5383 31.5264 10.7761L28.9195 13.4989C28.6919 13.7367 28.7001 14.1139 28.9379 14.3416C29.1756 14.5692 29.5529 14.561 29.7805 14.3232L32.3874 11.6004C32.615 11.3626 32.6068 10.9854 32.3691 10.7577Z" fill="#555555"/>
<path fill-rule="evenodd" clip-rule="evenodd" d="M35.9718 13.9992C35.805 13.7049 35.3658 13.5883 34.9908 13.7387L30.6968 15.4613C30.3219 15.6117 30.1531 15.9722 30.32 16.2665C30.4868 16.5608 30.9261 16.6774 31.301 16.527L35.595 14.8044C35.97 14.654 36.1387 14.2935 35.9718 13.9992Z" fill="#555555"/>
</g>
<defs>
<linearGradient id="paint0_linear_5885_1060" x1="26.8141" y1="21.9375" x2="26.8888" y2="25.414" gradientUnits="userSpaceOnUse">
<stop stop-color="#B7B7B7"/>
<stop offset="1" stop-color="#8A8A8A"/>
</linearGradient>
<linearGradient id="paint1_linear_5885_1060" x1="4.26589" y1="14.625" x2="5.10112" y2="24.992" gradientUnits="userSpaceOnUse">
<stop stop-color="#B7B7B7"/>
<stop offset="1" stop-color="#8A8A8A"/>
</linearGradient>
<linearGradient id="paint2_linear_5885_1060" x1="3.65647" y1="23.7695" x2="3.76711" y2="28.4043" gradientUnits="userSpaceOnUse">
<stop stop-color="#B7B7B7"/>
<stop offset="1" stop-color="#8A8A8A"/>
</linearGradient>
<linearGradient id="paint3_linear_5885_1060" x1="13.8114" y1="5.1284" x2="10.5449" y2="7.21791" gradientUnits="userSpaceOnUse">
<stop stop-color="#B7B7B7"/>
<stop offset="1" stop-color="#8A8A8A"/>
</linearGradient>
<linearGradient id="paint4_linear_5885_1060" x1="25.7397" y1="13.7641" x2="21.868" y2="9.35585" gradientUnits="userSpaceOnUse">
<stop stop-color="#B7B7B7"/>
<stop offset="1" stop-color="#8A8A8A"/>
</linearGradient>
</defs>
</svg>
