<svg xmlns="http://www.w3.org/2000/svg" xmlns:xlink="http://www.w3.org/1999/xlink" viewBox="0 0 1400 980" width="100" height="100" shape-rendering="geometricPrecision" image-rendering="optimizeQuality" fill-rule="evenodd"><defs><path d="M6.4 261.62c3.84-.32 7.74-.06 11.6-.1l430.7-.02-.07 488L24 749.47c-5.94.01-11.88.05-17.8-.07V274c.05-4.1-.23-8.3.2-12.38zm71.1 420.76l208.97-.06.08-37.9-151.57-.07c-4.7-.06-9.45.25-14.12-.18-.72-3.94-.24-8.16-.32-12.16l-.08-322.32c-14.3.02-28.6-.04-42.9.01-.37 4.73-.2 9.56-.2 14.3v344c-.03 4.8-.03 9.6.14 14.38zm127.96-334.84l56.52.07c18.04.84 36.04 4.05 51.5 13.88 12.95 8.2 22.37 20.8 26.55 35.56 4.4 15.84 4.33 33.18-.54 48.9-4.97 16-16.63 29.3-31.4 37.03-15.22 8.03-32.1 10.88-49.13 11.46-17.8.1-35.58-.06-53.37.08 2.42 3.5 5.08 6.8 7.82 10.03l138.7 170.26c1.98 2.35 3.72 5.08 6.04 7.1 1.36.7 3.3.43 4.82.54l47.46-.13c-2.03-3.77-4.82-6.9-7.6-10.13L300.62 547.4c-4.94-6.22-10.37-12.1-14.9-18.63 21.98-2.04 43.1-8.87 60.88-22.18 11.95-9.24 21.9-20.92 28.47-34.57 8.03-16.3 11.1-33.96 11.3-52.03-.42-20.33-4.17-40.15-14.5-57.9-9.82-16.98-24.98-30.13-42.6-38.53-22.28-10.6-45.83-13.58-70.25-13.9-17.78.04-35.58-.05-53.35.03-.46 12.6-.1 25.24-.17 37.84z" id="A"/><path d="M548.4 494.48l-.03 97.3 42.43-.05c.3 3.25.3 6.34-.01 9.6-17.48-.06-34.97-.1-52.45.02-.95-5.15-.5-10.13-.56-15.33l-.03-91.44c3.55-.1 7.1-.1 10.65-.08z" id="B"/><path d="M602.47 494.6c3.05-.27 6.14-.12 9.2-.12l-.13 106.8c-3.02-.01-6.04-.01-9.06 0l-.01-106.68z" id="C"/><path d="M870.12 494.5c-2.2 10.14-5.17 20.1-7.66 30.18a501.42 501.42 0 0 1-9.5-.05l7.98-30.06c3.05-.17 6.13-.1 9.18-.07z" id="D"/><path d="M828.9 494.5h9.62l.01 106.3c-3.1.43-6.18.55-9.3.6-.33-4.17-.42-8.32-.33-12.5-3.92 6.97-9.72 12.3-17.85 13.52-5.76.53-12.47.77-17.85-1.65-8.23-3.38-14-10.68-16.73-19-3.9-11.8-3.85-25-.5-36.9 2.36-8.32 7.53-15.6 15.5-19.3 7.08-3.03 15.04-3.9 22.4-1.3 6.76 2.22 11.64 7.22 15.04 13.32l-.02-43.08zm-31.34 38.25c-6.1 2.8-9.9 8.5-11.73 14.8-2.65 9.5-2.73 19.66-.4 29.25 1.67 6.3 5.05 12.6 11.03 15.72 4.23 2.3 8.84 2.5 13.54 1.97 5.9-.93 10.58-4.88 13.57-9.9 3.96-6.7 5.46-14.85 5.33-22.56-.1-7.27-1.76-15.05-5.63-21.3-3.13-4.88-8.25-9.14-14.26-9.4-3.85-.2-7.87-.2-11.44 1.43z" id="E"/><path d="M653.55 523.8c9.2-2.25 19.64-1 27.82 3.87 7.5 4.4 12.32 11.93 14.8 20.1 3.28 11.04 2.9 23.33-1.37 34.05-2.97 7.45-8.3 13.8-15.53 17.42-6.04 3.14-12.55 3.72-19.26 3.42a31.34 31.34 0 0 1-24.04-11.66c-5.8-7.13-8.52-16.95-8.83-26.02-.4-10.1 1.85-20.7 7.8-29 4.42-6.22 11.17-10.55 18.6-12.18zm.02 8.95c-6.82 2.74-11.24 8.64-13.62 15.4-3.2 9.3-3.22 19.88-.1 29.2 2.08 5.75 5.28 10.95 10.66 14.13 5.27 3.3 11.38 3.75 17.4 2.74 6.44-1.38 11.8-5.7 15.03-11.36 4.7-8.2 5.5-17.7 4.38-26.93-1.1-7.38-3.93-14.62-9.72-19.57-6.25-5.7-16.37-6.45-24.02-3.63z" id="F"/><path d="M888 523.58c8.87-2.18 18.1-.53 26.45 2.8l-.1 8.25c-7.72-3.58-16.1-4.23-24.45-2.95-4.03.97-8.08 3.95-8.92 8.22-1.24 4.77 1.16 9.5 5.4 11.8 8.65 5.04 19.17 7.7 26.46 15.44 6.62 7.04 7.2 18.47 1.5 26.23-3.68 4.9-9.7 7.64-15.58 8.84-9.64 1.15-19.17.56-28.3-2.9l.03-9.44c6.3 2.63 12.57 4.74 19.5 4.74 5.12.15 10.17-1.1 14-4.6 5.3-4.6 5.04-14.16-.57-18.43-7.93-6.5-20.38-9.06-27.5-16.54-5.45-5.34-5.65-14.26-2.62-20.85 2.7-5.9 8.55-9.23 14.67-10.62z" id="G"/><path d="M703.34 524.64l10.27-.06 21.52 63.75 22.23-63.77 9.85.1-30.26 87.53c-2.23 6.57-5.73 14.17-11.4 18.43-5.75 3.98-11.57 2.9-17.98 1.6l-.06-8.3c3.4.84 6.98 2.1 10.46.9 4.4-1.22 6.82-5.65 8.4-9.6 1.56-4.3 3.15-8.72 4.02-13.22-.5-2.68-1.63-5.28-2.53-7.84l-23.47-66.67-1.04-2.85z" id="H"/><path d="M537.77 643.3c10.08-.2 20.16-.07 30.23-.1 7.1-.06 14.18 1.52 19.9 5.93 4.4 3.44 6.9 8.47 7.98 13.87 1.26 6.66 1.06 13.45-2.48 19.4-4.22 7.18-11.54 10.97-19.48 12.67 2.47 1.08 5.15 2 7.12 3.9 2.54 2.43 4.17 6.07 5.6 9.24l18.2 41.22-11.53.04-16-37.7c-2.5-5.38-5.88-10.84-12.16-12.1-5.5-.75-11.18-.35-16.73-.44v50.2l-10.17.06c-.7-5.52-.38-10.96-.42-16.5l-.03-89.7zm10.63 46.5c7.73-.25 16.73.96 24.02-1.7 4.87-1.7 9.28-4.5 11.7-9.2 2.83-5.7 2.52-12.42.06-18.18-2.27-4.52-6.63-6.88-11.45-7.8-8.12-1.33-15.97-1.2-24.15-1.1-.43 12.64-.06 25.33-.18 37.98z" id="I"/><path d="M769.3 645.67l9.1.01.03 12.77-9.15.06c-.12-4.28-.13-8.56.01-12.84z" id="J"/><path d="M867.7 651.26c.38 7.44-.42 14.75.63 22.07l16.93-.04-.02 8.06c-5.8-.01-11.63-.05-17.45.07l.06 47.6c.38 4.76.43 10.46 5.2 13.06 4.3 1.58 9.85.63 14.13-.75-.05 2.68-.13 5.35-.28 8.03-4.35 1.13-8.43 2.25-12.98 1.94-5.44-.4-10.64-3.08-13.1-8.13-2.16-4.52-2.37-10.23-2.45-15.18l.01-46.64-11.98-.01-.08-8.07h12.12c.1-6.2.04-12.4.06-18.6l9.2-3.43z" id="K"/><path d="M945.85 681.12c7.08 9.2 8.15 20.35 7.9 31.6-17.17-.02-34.35.03-51.52-.03-.33 8.44 1.7 17.2 7.6 23.5 4.3 4.6 9.9 6.85 16.2 6.68 8.14.42 15.43-2.08 22.82-5.13-.02 3.1-.06 6.18-.27 9.27-5.18 1.5-10.18 3.23-15.57 3.88-9.48 1.5-20.43.25-28.33-5.6-7.18-5.28-10.76-13.75-12.27-22.3-1.5-9.22-1.36-19.2 1.54-28.16 2.78-8.63 8.1-16.2 16.32-20.4 11.3-5.56 27.57-3.65 35.6 6.68zm-43.73 23.5h41.47c-.18-7.32-1.87-15.56-7.5-20.7-6.28-6.1-17.1-5.68-23.86-.56-6.64 4.95-9.9 13.14-10.1 21.27z" id="L"/><path d="M664.58 681.45c6.95 8.74 8 20.44 7.9 31.2l-52.1.05c-.01 7.28 1.37 14.32 5.46 20.44a21.37 21.37 0 0 0 13.12 9.24c9.95 1.6 19.64-.52 28.56-5l.05 9.03c-10.77 4.6-24 6.8-35.36 3.34-7.76-2.22-14.2-7.76-17.7-15-4.23-8.82-4.76-18.12-4.3-27.75.4-10.22 4.46-21.57 12.34-28.4 11.55-10.33 32.3-9.76 42 2.86zm-44.4 23.12l41.94.03c-.34-7.7-1.9-15.5-7.75-20.97-7.07-6.16-18.1-5.3-24.93.78-5.96 5.2-8.6 12.44-9.26 20.16z" id="M"/><path d="M713 671.4c5.52-.14 10.75-.28 16 1.73 4.67 1.68 7.8 4.86 11.35 8.14l.05-8.02 9.28.05-.06 71.7c-.1 10.02-2.9 21.1-10.46 28.17-7.24 6.96-17.4 8.97-27.16 8.52-7.18.1-13.7-2-20.57-3.68-.6-3.25-.7-6.5-.68-9.8 10.32 4.17 20.6 6.88 31.78 4.58 6.32-1.4 11.46-5.3 14.1-11.26 3.6-8.17 3.83-18.17 3.84-26.95-3.44 5.73-7.14 10.8-13.7 13.14-10.7 3.78-24.4 1.18-32.18-7.35-7.4-8.3-9.94-19.5-9.93-30.38.4-9.74 1.74-19.63 7.57-27.75 4.74-6.72 12.6-10.5 20.75-10.85zm-2.58 9.15c-4.67 1.56-8.34 4.96-10.6 9.3-4.2 7.73-5 17.57-4.34 26.2.65 7.33 3.12 15.6 8.8 20.63 6.6 6 17.25 6.14 24.57 1.36 7.3-5 11-14.4 11-23.02.05-5.24.18-10.58-.5-15.8-1.23-6.7-4.24-13.6-10.4-17.13-5.44-3-12.65-3.44-18.52-1.53z" id="N"/><path d="M810.97 672.07c9-1.7 18.07-.63 26.56 2.7l.04 8.2c-8.25-3.16-18.1-5.2-26.64-2.1-5.26 1.77-8.33 7.7-6.6 12.97.9 3.65 4.12 5.9 7.26 7.6 6.8 3.5 14.07 5.9 20.4 10.65 3.14 2.47 6.12 5.4 7.74 9.1 3.5 7.52 1.78 17.47-4.48 23.04-4.7 4.34-10.96 6.27-17.2 6.95-8.4.76-16.67-.64-24.55-3.53v-9.47c5.02 2.23 9.95 4.17 15.5 4.5 6.26.28 12.06.76 17.23-3.44 5.53-4.15 6.48-12.98 1.5-17.93-7.54-7.8-22.05-9.78-29.4-18.6-4.68-5.36-4.73-13.2-2.15-19.5 2.75-6.08 8.45-9.7 14.82-11.1z" id="O"/><path d="M991.22 672.5c4.4-1.68 8.8-1.2 13.27-.06l-.01 9.23c-3.72-.23-7.93-.8-11.58.07-4.38 1.24-7.7 4.4-9.84 8.34-3.26 5.9-4.3 13.25-4.54 19.9l-.04 39.46-9.15.02-.05-53.48c-.07-5.6.34-11-.52-16.55-.1-2.05-.15-4.1-.2-6.16l9.24-.01-.07 14.58c.63-1.37 1.27-2.74 1.98-4.07 2.62-4.77 6.33-9.24 11.52-11.28z" id="P"/><path d="M769.3 673.4c3.04-.26 6.13-.13 9.17-.12l-.03 76.17-9.18.01.04-76.06z" id="Q"/><path d="M967.65 672.97c3.72-.2 7.4-.2 11.12-.02.13 3.63.4 7.25.93 10.84-.7 1.33-1.35 2.7-1.98 4.07.1-4.85.07-9.7.07-14.58l-9.24.01.2 6.16-1.1-6.48z" id="R"/></defs><g transform="matrix(1.394613 0 0 1.394613 -6.607263 -212.931579)"><use fill="#5098d3" xlink:href="#A"/><g fill="#143b62"><use xlink:href="#B"/><use xlink:href="#C"/><use xlink:href="#D"/><use xlink:href="#E"/><use xlink:href="#G"/><use xlink:href="#H"/><use xlink:href="#I"/><use xlink:href="#J"/><use xlink:href="#K"/><use xlink:href="#L"/><use xlink:href="#M"/><use xlink:href="#N"/><use xlink:href="#O"/><use xlink:href="#P"/><use xlink:href="#Q"/></g><use fill="#fff" xlink:href="#R"/><use fill="#143b62" xlink:href="#F"/></g></svg>