<svg xmlns="http://www.w3.org/2000/svg" xmlns:xlink="http://www.w3.org/1999/xlink" viewBox="0 0 300 283" width="100" height="100" shape-rendering="geometricPrecision" image-rendering="optimizeQuality" fill-rule="evenodd">
<path d="M 198.60 0.00 L 198.75 0.00 C 198.60 22.97 198.76 45.97 198.68 68.94 C 201.42 67.75 204.16 66.55 206.89 65.34 C 206.87 122.25 206.89 179.17 206.88 236.09 C 202.72 237.95 198.54 239.78 194.38 241.65 C 194.26 215.77 194.63 189.87 194.12 164.00 C 194.13 132.99 194.16 101.99 194.11 70.98 C 193.21 71.38 192.32 71.78 191.42 72.17 C 191.38 109.78 191.61 147.40 191.25 185.00 C 191.25 204.36 191.26 223.71 191.25 243.07 C 187.05 244.90 182.88 246.76 178.69 248.60 C 178.58 222.74 178.90 196.86 178.46 171.00 C 178.41 139.85 178.60 108.68 178.37 77.54 L 176.03 79.37 C 175.49 83.52 175.93 87.82 175.82 92.00 C 175.70 124.66 176.08 157.35 175.56 190.00 C 175.58 210.00 175.56 230.00 175.57 250.00 C 171.42 251.88 167.25 253.73 163.07 255.55 C 163.06 198.59 162.97 141.64 163.00 84.67 C 161.99 85.11 160.98 85.55 159.97 86.00 C 160.08 143.01 159.84 199.98 159.88 256.99 C 155.72 258.85 151.55 260.71 147.39 262.56 C 147.25 236.71 147.64 210.84 147.12 185.00 C 147.15 153.86 147.13 122.73 147.14 91.60 C 146.24 91.99 145.34 92.39 144.44 92.79 C 144.34 130.19 144.64 167.61 144.25 205.00 C 144.26 224.64 144.24 244.28 144.26 263.92 C 140.10 265.81 135.93 267.66 131.75 269.50 C 131.66 243.67 131.94 217.83 131.56 192.00 C 131.58 160.79 131.55 129.58 131.57 98.37 C 130.65 98.80 129.73 99.22 128.81 99.64 C 128.83 130.76 128.80 161.88 128.83 193.00 C 128.32 218.96 128.66 244.94 128.58 270.91 C 124.41 272.77 120.24 274.64 116.06 276.47 C 116.06 219.41 115.97 162.36 115.99 105.30 C 115.00 105.70 114.01 106.10 113.01 106.50 C 113.04 163.61 112.91 220.73 112.96 277.83 C 109.10 279.56 105.27 281.37 101.36 283.00 L 101.30 283.00 C 101.33 259.82 101.29 236.63 101.31 213.45 C 98.50 214.69 95.69 215.94 92.88 217.18 C 92.89 160.25 92.86 103.31 92.89 46.37 C 97.03 44.53 101.17 42.72 105.32 40.90 C 105.42 66.60 105.10 92.31 105.54 118.00 C 105.51 149.18 105.55 180.37 105.52 211.55 C 106.43 211.10 107.34 210.65 108.25 210.21 C 108.23 178.80 108.26 147.40 108.23 116.00 C 108.77 90.50 108.37 64.97 108.50 39.46 C 112.66 37.68 116.80 35.87 120.94 34.06 C 120.94 90.89 121.04 147.72 121.00 204.55 C 121.97 204.18 122.95 203.81 123.92 203.44 C 124.08 146.52 123.99 89.56 124.07 32.64 C 128.25 30.85 132.42 29.04 136.57 27.18 C 136.67 53.12 136.33 79.07 136.83 105.00 C 136.80 135.84 136.83 166.68 136.81 197.51 C 137.70 197.16 138.59 196.80 139.48 196.45 C 139.45 165.30 139.49 134.15 139.46 103.00 C 139.90 77.29 139.58 51.56 139.68 25.85 C 143.83 23.99 148.00 22.16 152.19 20.38 C 152.15 77.15 152.43 133.89 152.31 190.67 C 153.24 190.25 154.17 189.83 155.10 189.41 C 155.08 158.27 155.11 127.14 155.09 96.00 C 155.52 70.34 155.21 44.66 155.31 18.99 C 159.45 17.15 163.60 15.33 167.75 13.51 C 167.76 33.01 167.76 52.50 167.75 72.00 C 168.14 109.23 167.86 146.48 167.95 183.72 C 168.92 183.30 169.90 182.88 170.87 182.46 C 170.84 125.68 170.95 68.91 170.93 12.13 C 175.07 10.30 179.22 8.49 183.36 6.67 C 183.52 32.11 183.11 57.57 183.62 83.00 C 183.60 114.27 183.62 145.54 183.61 176.80 C 184.50 176.38 185.39 175.96 186.28 175.54 C 186.19 144.36 186.28 113.18 186.23 82.00 C 186.75 56.44 186.39 30.85 186.49 5.29 C 190.54 3.57 194.53 1.68 198.60 0.00 Z" fill="#0097bd" />
<path d="M 300.00 24.45 L 300.00 194.59 C 296.18 196.51 292.19 198.10 288.30 199.86 C 288.32 143.12 288.28 86.38 288.32 29.64 C 292.21 27.90 296.16 26.30 300.00 24.45 Z" fill="#0097bd" />
<path d="M 285.18 31.02 C 285.20 87.76 285.18 144.51 285.19 201.25 C 281.02 203.12 276.86 204.99 272.68 206.80 C 272.68 150.03 272.68 93.26 272.68 36.48 C 276.84 34.66 281.01 32.82 285.18 31.02 Z" fill="#0097bd" />
<path d="M 269.51 37.88 C 269.50 94.67 269.52 151.45 269.50 208.24 C 265.34 210.09 261.18 211.95 257.02 213.80 C 256.99 156.99 256.98 100.17 257.02 43.36 C 261.18 41.53 265.34 39.71 269.51 37.88 Z" fill="#0097bd" />
<path d="M 253.89 44.76 C 253.87 101.57 253.89 158.38 253.88 215.18 C 249.70 217.04 245.53 218.89 241.36 220.77 C 241.49 217.04 240.67 212.87 242.62 209.62 C 244.70 205.71 245.78 201.57 246.58 197.24 C 244.84 197.13 243.10 197.04 241.36 196.94 C 241.37 192.72 241.37 188.51 241.38 184.29 C 243.04 182.94 244.70 181.58 246.36 180.23 C 245.25 176.81 243.90 174.06 241.40 171.43 C 241.38 148.24 241.31 125.04 241.44 101.85 C 245.30 96.83 247.02 90.48 245.58 84.24 C 245.01 81.78 243.01 80.86 241.22 79.34 C 244.86 73.50 246.91 65.65 241.44 60.19 C 241.35 56.88 241.36 53.57 241.37 50.26 C 245.53 48.39 249.69 46.54 253.89 44.76 Z" fill="#0097bd" />
<path d="M 89.75 47.74 C 89.77 104.68 89.75 161.63 89.76 218.57 C 85.59 220.43 81.42 222.28 77.25 224.12 C 77.23 167.16 77.25 110.20 77.24 53.25 C 81.40 51.39 85.57 49.55 89.75 47.74 Z" fill="#0097bd" />
<path d="M 238.17 51.62 C 238.18 54.50 238.19 57.38 238.19 60.25 C 234.00 61.99 229.86 63.82 225.69 65.60 C 225.68 62.77 225.68 59.94 225.67 57.12 C 229.84 55.29 234.01 53.46 238.17 51.62 Z" fill="#0097bd" />
<path d="M 74.12 54.58 C 74.12 111.57 74.13 168.56 74.11 225.54 C 69.97 227.38 65.82 229.21 61.68 231.05 C 61.68 174.05 61.68 117.05 61.68 60.05 C 65.82 58.21 69.97 56.40 74.12 54.58 Z" fill="#0097bd" />
<path d="M 222.57 58.48 C 222.57 61.26 222.57 64.04 222.58 66.82 C 221.76 67.28 220.93 67.74 220.11 68.20 C 220.15 82.87 220.07 97.55 220.19 112.22 L 222.56 111.30 C 222.60 134.22 222.53 157.14 222.60 180.05 C 222.71 184.12 220.91 187.15 220.16 191.09 C 219.04 196.91 218.89 203.15 219.87 208.99 C 220.50 212.71 222.68 215.31 222.59 218.96 C 222.66 222.34 222.55 225.74 222.53 229.13 C 218.39 231.00 214.22 232.83 210.06 234.66 C 210.06 177.75 210.05 120.85 210.06 63.94 C 214.22 62.11 218.39 60.29 222.57 58.48 Z" fill="#0097bd" />
<path d="M 58.51 61.43 C 58.51 118.44 58.50 175.44 58.51 232.45 C 54.36 234.32 50.21 236.17 46.04 237.98 C 46.08 180.95 46.04 123.92 46.06 66.89 C 49.02 65.61 51.98 64.31 54.94 63.01 C 56.13 62.48 57.32 61.96 58.51 61.43 Z" fill="#0097bd" />
<path d="M 42.87 68.31 C 42.88 125.35 42.90 182.39 42.87 239.42 C 38.72 241.25 34.59 243.11 30.46 244.95 C 30.40 187.88 30.45 130.81 30.43 73.75 C 34.58 71.94 38.72 70.10 42.87 68.31 Z" fill="#0097bd" />
<path d="M 235.67 71.28 C 236.60 73.43 236.51 76.23 235.16 78.19 C 233.58 79.90 230.88 80.69 228.83 81.70 C 228.81 78.84 228.81 75.98 228.79 73.11 C 230.86 72.38 233.44 70.66 235.67 71.28 Z" fill="#0097bd" />
<path d="M 27.31 75.12 C 27.33 132.19 27.32 189.25 27.32 246.32 C 23.17 248.21 19.00 250.07 14.81 251.87 C 14.81 194.79 14.81 137.70 14.81 80.62 C 18.97 78.78 23.15 76.96 27.31 75.12 Z" fill="#0097bd" />
<path d="M 11.70 81.97 C 11.68 139.08 11.71 196.19 11.69 253.30 C 7.79 255.05 3.83 256.68 0.00 258.56 L 0.00 87.18 C 3.82 85.28 7.81 83.72 11.70 81.97 Z" fill="#0097bd" />
<path d="M 236.07 87.44 C 238.21 89.26 237.56 93.10 236.10 95.14 C 234.31 97.09 231.24 97.98 228.89 99.10 C 228.87 96.08 228.81 93.04 228.94 90.03 C 231.23 88.86 233.51 87.85 236.07 87.44 Z" fill="#0097bd" />
<path d="M 238.17 104.23 C 238.21 126.40 238.19 148.58 238.18 170.75 C 232.79 172.05 229.50 174.08 225.63 178.00 C 225.75 155.31 225.65 132.61 225.68 109.91 C 229.91 108.13 234.06 106.25 238.17 104.23 Z" fill="#0097bd" />
<path xmlns="http://www.w3.org/2000/svg" d="M 236.11 116.86 C 236.08 131.60 236.22 146.33 236.18 161.07 C 233.31 162.34 230.43 163.59 227.54 164.83 C 227.46 150.07 227.52 135.32 227.51 120.56 C 230.37 119.32 233.24 118.09 236.11 116.86 Z" fill="#ffffff"/>
<path d="M 237.85 184.11 C 238.44 186.98 238.16 190.08 238.22 193.00 C 238.08 197.43 238.92 202.20 235.97 205.93 C 234.32 207.86 230.82 209.74 229.19 206.72 C 227.63 203.23 227.85 198.76 227.91 194.99 C 228.10 190.82 229.02 185.26 232.79 182.76 C 234.70 181.57 236.98 181.86 237.85 184.11 Z" fill="#0097bd" />
<path d="M 238.22 215.48 C 238.20 217.71 238.18 219.94 238.17 222.17 C 234.00 224.02 229.85 225.89 225.67 227.71 C 225.67 224.92 225.68 222.12 225.66 219.33 C 230.57 219.52 234.16 218.04 238.22 215.48 Z" fill="#0097bd" />
</svg>