<svg xmlns="http://www.w3.org/2000/svg" xmlns:xlink="http://www.w3.org/1999/xlink" viewBox="0 0 1400 980" width="100" height="100" shape-rendering="geometricPrecision" image-rendering="optimizeQuality" fill-rule="evenodd"><defs><path d="M0 324.4l406.15.01-.01 374.62L0 699.02V324.4zm81.97 112.13l8.7.06c7.82-11.47 17.38-21.9 28.26-30.52 4.17 3 8.47 5.77 12.85 8.45-5.82 6.86-10.9 14.14-15.22 22.03l8.5.02c4-6.5 8.45-12.7 13.5-18.43 6.93 3.47 14.07 6.44 21.47 8.8l-3.84 9.63 7.9.01 3.2-7.46c10.63 2.56 21.46 4.17 32.4 4.46l.03 2.98 6.9.07.6-3.1c10.96-.3 21.7-2.08 32.35-4.57l3.22 7.62 7.9-.03a250.14 250.14 0 0 0-4.02-9.76c7.37-2.46 14.48-5.44 21.45-8.88 5.13 5.8 9.63 12.07 13.67 18.67l8.55-.04c-4.42-8-9.68-15.34-15.42-22.43 4.23-2.5 8.3-5.2 12.27-8.05 10.88 8.68 20.43 18.98 28.23 30.5h8.73c-16.53-26.62-41.97-47.5-71.36-58.37-26.24-9.86-55.5-11.6-82.75-5.07-36.26 8.5-68.4 31.8-88.05 63.4zm218.45 11.1c-9.54.75-19.64 2.95-28.03 7.73-10.86 6.23-20 15.17-25.53 26.48-6.86 13.57-8.83 29.3-5.82 44.18 2.86 16.2 12.8 30.5 26.5 39.43 11.54 7.6 24.8 10.4 38.46 10.72 14.78-.15 29.08-3.14 41.22-11.96 11.28-8.35 20-20.55 23.9-34.07 4.1-14.5 3.23-30.6-2.82-44.43-4.54-10.22-11.7-19.64-20.67-26.38-13.53-10.03-30.74-12.68-47.2-11.7zm-267.9 1.6l-.01 30.36 17.82.01-.01 63.8c-5.94.01-11.87-.01-17.8.01l.01 30.43h79.17v-30.44a3535.63 3535.63 0 0 1-17.84-.01l-.01-63.8 17.85-.02v-30.35c-26.4 0-52.77 0-79.16-.01zm113.54 79.98c-8.97-.1-17.93 0-26.9-.04l.01 43.6h27.1v-7.66c9.86 5.23 20.75 7.47 31.74 8.8 13.2 1.43 26.64.68 38.72-5.24 6.57-3.37 12.9-7.9 16.42-14.6 3.06-5.7 3.62-11.77 3.55-18.13.1-8.97-4.7-17.54-11.02-23.65-9.3-9.16-22.76-14.6-35.22-17.84-9.5-2.28-18.8-4.62-28-8.07-2.27-.95-4.43-1.94-5.28-4.46-1.35-3.4.67-7.37 4-8.66 4.7-1.8 10.58-.98 15.28.5 7.75 2.48 15.2 6.13 21.75 10.96 3.25 2.28 5.76 5.24 7.98 8.5l26.52.05.03-42.77c-9.07.01-18.14-.01-27.2.02l-.01 7.4c-12.66-6.9-28.3-8.97-42.54-8.78-12.87-.04-26.3 4.13-35.83 13-11.06 10.45-12.24 29-3.74 41.37 6.45 9.63 17.26 15.98 27.72 20.43 12.17 5.1 24.73 8.12 37.65 10.55 2.5.6 5.05.84 6.85 2.87 2.2 2.1 2.6 5.22 1.68 8.04-1.36 3.02-4.46 4.24-7.53 4.73-7.43 1.08-15.54-1.7-22.33-4.53-8.36-3.8-16.64-8.2-21.4-16.4zm-64.1 57.65c14.3 23.2 35.6 42.15 60.25 53.77 19.5 9.3 41.22 13.92 62.8 13.64 26.68-.33 53.07-8.32 75.44-22.86 17.55-11.37 32.67-26.74 43.7-44.5l-8.53-.08c-8.07 11.5-17.37 21.96-28.44 30.66-4-2.87-8.14-5.54-12.3-8.2 5.86-6.93 11.13-14.4 15.4-22.42-2.7-.01-5.52-.2-8.2.25-1.24 1.02-2.06 2.62-2.97 3.94-3.26 5.2-7.05 9.96-11.03 14.63-6.86-3.5-13.94-6.52-21.3-8.83l3.9-10-7.9.05-3.32 7.75c-10.7-2.82-21.6-4.23-32.66-4.76l-.03-3.03h-7.08l-.03 3.1c-10.9.34-21.73 1.72-32.28 4.52l-3.4-7.64-7.8.02 3.8 9.7c-7.47 2.33-14.5 5.58-21.67 8.7-4.83-5.87-9.35-11.9-13.27-18.4-2.85-.01-5.7 0-8.53 0 4.34 7.9 9.47 15.26 15.24 22.16-4.38 2.67-8.7 5.44-12.84 8.47-9.7-7.78-18.4-16.73-25.56-26.9-.94-1.23-1.88-2.63-3.1-3.58-2.73-.32-5.53-.18-8.28-.16z" id="A"/><path d="M235.4 380.63c-3.3 2.06-6.57 4.08-10.17 5.6-17.02 7.37-37.37 4.88-52.16-6.28 20.52-4.63 41.93-4.6 62.33.67z" id="B"/><path d="M452.57 381.96l8.03-.01v58.83l-8.05.01.01-58.83z" id="C"/><path d="M729.32 381.96h7.4v9.32l-7.4.01v-9.33z" id="D"/><path d="M882.82 381.95l7.45.01.01 58.83c-2.48 0-4.97-.01-7.45-.01l-.01-58.83z" id="E"/><path d="M164.28 382.24l3.88 3.55c-11.8 5.7-22.17 13.72-31.32 23.06-4.06-2.3-7.97-4.76-11.77-7.47a140.1 140.1 0 0 1 39.21-19.14z" id="F"/><path d="M244.18 383.15c13.1 3.83 25.6 10.5 36.8 18.22-3.63 2.6-7.4 5-11.23 7.28-8.73-9.12-18.7-16.45-29.84-22.36 1.4-1.06 2.8-2.14 4.26-3.14z" id="G"/><path d="M519.44 385.7h8.03l.02 12.4 8.04.05-.01 6.74-8.03.02.04 28.54c2.65.4 5.3.53 7.98.66l.03 6.7c-4.22-.1-9.98.68-13.68-1.63-2.02-2.28-2.32-6.17-2.43-9.1l-.01-25.16-6.8-.02v-6.76h6.8l.03-12.4z" id="H"/><path d="M705.78 385.7h7.44l.02 12.4h8.64l-.02 6.78h-8.6l-.04 22.18c-.06 2.47.76 4.62 1.53 6.9l7.14-.01-.01 6.84c-4.25-.1-10.16.7-13.84-1.76-2-2.7-2.27-6.78-2.3-10.03l.01-24.13h-6.8l-.03-6.75 6.86-.04.01-12.38z" id="I"/><path d="M175.84 390.53l5.33 2.52c-6.55 8.64-12.62 17.5-17.7 27.1-6.84-1.8-13.26-4.57-19.63-7.6 9-9.3 19.98-17.17 32-22.04z" id="J"/><path d="M232.3 391.14c11.4 4.5 21.83 12.62 30.62 21.08-6.36 3.08-12.8 5.88-19.64 7.76-4.78-9.3-10.58-18-17.2-26.06 2.06-.95 4.12-1.94 6.22-2.78z" id="K"/><path d="M189.08 396.2c3.55.1 7.08 1.02 10.6 1.5l-.01 28.58c-9.78-.36-19.4-1.6-28.93-3.9 4.52-8.4 9.88-16.36 15.73-23.9.74-.75 1.53-2.1 2.6-2.28z" id="L"/><path d="M218.36 396.27c6.88 7.95 12.7 16.7 17.75 25.9-9.28 2.2-18.9 3.8-28.45 3.97-1.16-.9-.7-2.83-.88-4.15.16-8.08-.25-16.18.34-24.24 3.8-.24 7.5-.74 11.24-1.48z" id="M"/><path d="M488.58 397.6c4.95-.34 10.14-.86 14.16 2.63 3.33 2.7 4.3 6.62 4.34 10.74l.01 29.8-7.46.01-.13-30.63c-.8-4.43-4.07-5.23-7.75-6.62-3.22.85-6.96 1.23-9.26 3.93-2.58 3.1-3.33 7.6-3.3 11.52v21.8c-2.47 0-4.95-.01-7.42-.01l-.01-42.68h7.45v5.06c2.9-2.6 5.3-5.13 9.4-5.55z" id="N"/><path d="M563.06 397.42c5.42.01 10.5 3.9 13.07 8.5 2.95 4.84 3.5 10.1 3.45 15.67l-31.64.03c.55 2.66.73 5.8 2.38 8.02 3.43 5.48 11.64 7 17.05 3.72 2.35-1.6 3.4-4.36 4.6-6.8l7.24.05c-1.24 4.48-2.2 8.53-6.15 11.44-5.2 4.04-10.9 3.63-17.1 3.27-5.37-.73-9.94-4.03-12.5-8.8-3.22-5.46-3.28-11.2-2.94-17.36.77-7.36 5.75-14.13 12.7-16.77 3.03-1.2 6.62-1.03 9.84-.98zm-14.93 17.95l23.73-.03c-.85-2.54-1.55-5.72-3.5-7.68-4.12-4.57-12.76-4.97-16.75 0-2.22 2.15-2.8 4.8-3.48 7.7z" id="O"/><path d="M608.55 397.36l.05 7.43c-3.5.7-6.93.87-9.92 3-2.8 2.1-4.38 5.75-4.84 9.14-1.16 7.74-.55 15.98-.73 23.85l-7.44.01-.01-42.67 7.44-.03.1 7.8c1.62-2.7 3.17-5.2 6-6.77 2.98-1.97 5.94-1.58 9.34-1.75z" id="P"/><path d="M631.15 397.6c4.73-.24 10.02-.92 13.96 2.28 4.26 3.03 4.76 8.3 4.96 13.1l.01 27.8-7.45.01-.02-27.82c-.03-3.58-1.63-6.98-5.04-8.43-4.05-.93-9.24-.45-12.13 2.9-2.7 2.8-3.3 6.8-3.26 10.56l.03 22.8-7.46.01.01-42.68h6.8l.01 5.73c2.95-2.8 5.27-5.68 9.57-6.23z" id="Q"/><path d="M673.94 397.47c5.18.03 9.9-.8 14.5 2.05 3.86 2.15 4.93 6.32 4.97 10.46l.03 24.8 4.26-.18v6.56c-2.8.16-5.77.53-8.54.08-1.86-.7-2.4-3.06-3.28-4.7-3.3 2.54-6.5 4.7-10.8 4.88-4.23.1-8.93.6-12.62-1.86-7.42-4.17-6.64-17.57 1.3-20.8 5.4-2.53 11.58-2.65 17.1-3.83 2.27-.6 4.7-1.3 5.08-4 .1-3.17-2.63-6.54-5.9-6.66-3.5-.28-7.92-.38-10.96 1.7-1.68 1.2-2.02 3.93-2.7 5.76l-7.23-.1c.34-2.68.4-5.22 1.9-7.55 2.7-4.47 7.88-6.5 12.9-6.64zm-8.65 33.9c2.1 1.66 3.88 3.32 6.66 3.66 4.17.53 9-1.08 11.84-4.28 2.5-3.42 2.1-6.95 2.25-10.95-5.8 1.93-12.93 1.05-18.08 4.23-2.9 1.66-2.17 4.48-2.67 7.34z" id="R"/><path d="M760.45 397.63c4.94-.38 10.65-.73 15.08 1.83 4.68 2.3 7.8 6.77 9.33 11.66 1.88 6.57 1.57 14.1-1.35 20.34-3.2 6.56-10.3 10.4-17.5 10.05-5.98.4-11.68-1.24-15.9-5.6-3.32-3.87-5.16-8.82-5.35-13.9-.2-5.44.16-11.33 3.26-16 2.8-4.2 7.4-7.57 12.44-8.4zm4.1 6.28c-3.88.46-7.6 2.63-9.58 6.06-2.04 3.25-2.32 7.32-2.22 11.06.03 3.78 1.33 7.5 3.9 10.3 3.87 3.82 10.02 5.04 14.76 2.03 7.18-4.46 8.45-15.46 4.7-22.5-2.05-4.4-6.73-7.14-11.54-6.97z" id="S"/><path d="M810.97 397.5c4.26-.1 8.85-.66 12.5 2 4.57 2.7 5.3 8.7 5.57 13.5l.01 27.8-7.5.03v-26.86c-.07-3.7-.95-7.17-4.4-9.1-4.05-1.92-9.77-.84-12.74 2.55-2.2 2.3-3.3 5.4-3.26 8.55l-.02 24.84c-2.48 0-4.97-.01-7.45-.01v-42.66l6.83-.03-.07 5.76c3.03-3.2 5.86-6.07 10.53-6.36z" id="T"/><path d="M852.94 397.46c5.17.03 9.9-.78 14.48 2.1 3.85 2.16 4.82 6.32 4.9 10.43l.03 24.8 4.26-.14v6.46c-2.75.2-5.7.64-8.44.16-1.9-.63-2.65-3.04-3.6-4.63-1.94 1.48-3.8 3-6.12 3.82-3.22 1.28-7.05 1.08-10.48 1-4.58.1-9.62-2.92-11.1-7.38-1.3-5.06-.66-11.07 3.96-14.27 7.45-4.67 15.43-2.8 23.64-6.67-.03-1.86.12-3.55-.4-5.35-1.06-1.87-2.83-3.36-5.05-3.5-3.58-.3-7.98-.4-11.07 1.73-1.7 1.1-1.98 3.9-2.68 5.67l-7.33.04c.46-3.18.66-6.33 2.77-8.94 3-3.52 7.68-5.24 12.22-5.33zm-8.74 33.9c2.57 2.34 5.2 4.05 8.85 3.8 3.74-.5 7.87-1.75 10-5.14 1.95-3.07 1.73-6.53 1.94-10.02-5.7 1.33-12.25 1.1-17.55 3.56-3.34 1.8-2.8 4.54-3.25 7.8z" id="U"/><path d="M729.33 398.1h7.4v42.68h-7.4l.01-42.7z" id="V"/><path d="M314.8 480.33c5.4 2.94 9.22 8.5 10.58 14.43 1.3 5.44.73 11.62.83 17.24-.07 5.78.47 11.62-1.07 17.23-1.68 5.98-5.86 11.57-11.64 14.1-5.05 2.25-11.1 1.84-15.8-1.05-5.73-3.5-9.53-9.92-10.3-16.53-.42-4.9-.13-9.84-.2-14.74.08-4.72-.27-9.53.27-14.22.96-6.98 5.25-13.6 11.62-16.78 4.86-2.45 10.96-2.3 15.7.33z" id="W"/><path d="M470.54 478.73c7.9-1.12 15.8-.57 22.45 4.3 8.42 5.8 12.07 16.02 11.64 25.97.4 8.86-2.7 18.2-9.58 24.07-4.7 4.38-10.64 6.46-17.05 6.26-7.08.27-13.94-1.16-19.3-6-6.8-5.83-9.8-14.54-9.92-23.32-.23-7.1 1.24-14.1 5.1-20.1 3.97-5.7 9.72-10.03 16.68-11.16zm3.06 6.82c-5.78 1.05-10.6 4.48-13.3 9.72-4.77 9.1-4.4 21.37 1.6 29.82 5.6 7.93 17.42 9.78 25.34 4.28 3.13-2.33 5.68-5.34 7.08-9.02 3.48-8.53 2.94-18.84-2-26.7-4.35-6.44-11.06-9.2-18.73-8.1z" id="X"/><path d="M950.33 479.2v6.67c-2.96-.06-5.7.2-8.6.82l-.8 9.16 8.76.05v6.2l-8.6.01v35.9l-7.47.04v-35.93l-6.8-.03-.02-6.2 6.8-.03c.1-4.84-.83-10.4 3.03-14.1 3.76-3.5 9.03-2.43 13.7-2.57z" id="Y"/><path d="M672.93 479.8h7.46v8.66l-7.48.01.01-8.66z" id="Z"/><path d="M799.28 479.8l7.4.02-.01 8.65h-7.4v-8.67z" id="a"/><path d="M775.75 482.88l7.44-.01v13l8.64.01-.01 6.2-8.63.02-.04 22.9c-.07 2.2.4 4.2 1.14 6.27l7.53-.1.01 6.85c-4-.08-8.5.5-12.35-.7-3.1-1.5-3.7-5.2-3.76-8.32l.02-26.9-6.84-.05v-6.17l6.86-.05v-12.98z" id="b"/><path d="M534.87 494.5l.02 8c-4.5.15-8.64 1.08-11.78 4.54-2.14 2.84-3.1 6.4-3.06 9.93l.01 21.08h-8.1l.03-42.16h7.44l-.02 7.1c1.83-2.2 3.76-4.72 6.1-6.4 2.76-1.8 6.17-1.9 9.35-2.1z" id="c"/><path d="M567.15 500.35l-.03-4.46h6.77v41.14c-.05 6.4-2.34 12.5-8.1 15.8-3.73 1.8-8.7 2.78-12.83 2.45-5.17-.6-10.04-1.58-13.65-5.65-1.98-1.87-2.2-4.74-2.9-7.24l7-.08c2.7 6.82 12 8.28 17.78 4.92 5.2-3.87 5.4-9.13 6.14-15.05-6.12 8.45-19.64 8.43-26.72 1.3-4.26-4.54-6-11.45-5.73-17.54.43-5.88 1.96-12.4 6.57-16.47 7-6.7 19.3-6.77 25.67.9zm-16.92 1.9c-2.9 1.36-5.04 3.84-6.06 6.86-1.76 5.16-1.74 11.18.47 16.2 1.32 2.98 3.77 5.36 6.9 6.34 4.03.76 8.1-.08 11.02-3.08 3.92-4.65 4.47-10.77 3.74-16.6-.73-4.53-3.83-8.86-8.27-10.34-2.52-.4-5.42-.44-7.8.6z" id="d"/><path d="M602 494.58c4.68.01 9.77.8 13.1 4.4 2.2 2.4 2.17 5.97 2.2 9.03l-.03 22.9 1.54 1.6 2.96-.24c-.1 1.86-.12 3.74-.37 5.6-2.22 2-6.2 1.7-8.7.36-1.5-.66-1.95-2.86-2.7-4.2-5.9 5.25-15.3 6.74-22.52 3.6-7.58-3.65-8.03-15.64-1.47-20.47 6.04-3.9 15.27-3.23 21.47-5.57 4.28-2.02 2.2-8.25-1.6-9.5-3.4-.96-8.1-1.06-11.33.55-2.87 1.42-3.24 4.24-4.38 6.94l-7.26-.05c.62-3.93 1.14-7.5 4.15-10.4 3.72-3.58 9.95-4.65 14.92-4.5zm7.9 22.67c-4.4 1.02-8.9 1.56-13.33 2.42-3.02.74-5.96 1.8-6.85 5.1-1.25 2.8 1.04 5.75 3.45 7 5.38 1.92 12.6.07 15.52-5.1 1.7-2.6 1.02-6.4 1.2-9.42z" id="e"/><path d="M653 495c4.26.85 7.63 4.02 8.88 8.16 1.18 4.43 1.25 9.28 1.24 13.83l-.03 21.03-8.13.03-.04-29.1c.07-3.12-1.18-5.6-4.1-6.85-4-1.5-9.23-.8-12.25 2.46-2.55 2.52-3.46 5.9-3.38 9.42v24.05l-8.04.03.01-42.17h7.4v5.14c1.6-1.5 3.14-3.2 4.96-4.4 3.9-2.32 9.12-2.42 13.47-1.62z" id="f"/><path d="M742.96 494.8c4.53-.43 9.6-.37 13.9 1.32 2.53 1.15 5.04 3.52 5.65 6.32.96 9.9-1 20.4 1.24 30.13l3.35-.4v6.38c-2.58.26-5.6 1.26-8 .03-1.82-.57-2.72-3.17-3.7-4.64-6.25 5.95-16.6 6.88-23.98 2.62-4.5-3.3-4.34-8.14-3.86-13.17 1-4.3 4.5-7.12 8.62-8.28 6.86-2.4 13.16-1.13 19.37-4.95-.4-2.75.3-5.5-2.37-7.24-5.03-2.8-10.62-1.53-15.47 1-.4 1.83-.86 3.64-1.36 5.44l-7.97.2c.75-3.26 1.06-6.26 3.13-9.02 2.45-3.6 7.33-5.14 11.44-5.73zm-7.65 34.52c5.57 4.73 12.9 3.94 18.1-.86 2.7-3 1.77-7.5 1.97-11.25-5.6 1.76-12.05 1.32-17.23 3.94-3.33 1.55-2.44 5.16-2.83 8.17z" id="g"/><path d="M852.05 502.9c3.96 5.58 4.04 13.05 3.27 19.58-1.16 7.6-6.32 14.2-14 15.9-7.76 1.97-16.55.56-21.86-5.86-4.2-4.63-4.48-9.92-5.16-15.83.75-5.68 1.04-10.82 5.1-15.27 7.92-9.73 25.74-9.07 32.65 1.5zm-21.73-.56c-5.48 2.44-7.5 8.18-8.1 13.75-.03 6.3 2.2 12.66 8.36 15.33 7 3.46 15.25-2.06 16.6-9.27.97-5.9.9-13.1-3.95-17.38-3.28-3.6-8.55-4.23-12.92-2.43z" id="h"/><path d="M887.96 494.83c4.57.6 8.56 3.86 9.8 8.34 1.12 4.4 1.22 9.3 1.2 13.83l-.01 21.03-8.06.01.03-27.04c-.1-2.64.16-5.07-1.75-7.17-2.72-2.9-6.6-2.7-10.23-2.05-4.74 1.3-7.93 6.37-7.8 11.17l-.01 25.1-8.16-.04.08-42.1 7.43-.02-.02 5.15c1.92-1.78 3.94-4.05 6.32-5.2 3.42-1.45 7.57-1.42 11.2-1z" id="i"/><path d="M966.45 495.57c3.15-1 6.38-1.1 9.66-.9 7.18.54 13.75 5.16 16.2 12.02 3.74 9.74 2.24 22.53-6.7 28.98-7.43 5.06-18.23 4.6-25.47-.65-4.1-3.32-6.6-8.77-7.17-13.96-.64-5.52-.12-11.53 2.54-16.5 2.15-4.42 6.27-7.6 10.94-9zm2.8 6.6c-9.2 3.56-10.73 17.13-5.93 24.63 3.9 6.34 12.53 7.56 18.12 2.62 5.36-5.6 6.2-14.6 2.6-21.36-2.4-5.34-9.4-8.14-14.8-5.9z" id="j"/><path d="M1024 494.47v8.03c-3.26.22-6.3.46-9.1 2.32-3.87 2.1-5.63 6.94-5.7 11.13l-.03 22.1-8.05-.02.02-42.14 7.38-.02.02 7.12c1.77-2.2 3.7-4.73 6.02-6.36 2.78-1.86 6.25-1.9 9.46-2.17z" id="k"/><path d="M672.93 495.9l7.46-.02v42.18l-7.46-.03V495.9z" id="l"/><path d="M689.1 495.9h32.77l-.01 5.15-24.92 30.17h26.2l.01 6.8-35.9.01-.02-5.8 24.92-30.12c-7.68-.02-15.36 0-23.05-.01l.01-6.2z" id="m"/><path d="M799.28 495.88h7.4v42.17c-2.47 0-4.93 0-7.4-.01v-42.16z" id="n"/><path d="M477.9 576.16c5.2.78 10.03 3.57 12.88 8.05 1.94 3.12 2.36 6.56 2.93 10.1l-7.92.03c-.98-3.08-1.75-6.68-4.5-8.7-5.76-3.9-14-4.14-19.72 0-2.66 2.22-4 7.35-1.64 10.2 1.9 2.45 5 3.45 7.85 4.3 6.57 1.7 14.14 2.82 20.3 5.77 7.44 3.43 9.74 13.5 6.34 20.52-1.95 4.36-5.76 6.87-10.05 8.6-7.08 2.42-14.6 2.65-21.74.38-5-1.3-9.25-4.74-11.82-9.2-1.87-3.18-1.85-6.7-2.16-10.3l7.77.17c.65 2.76.92 5.53 2.67 7.85 2.47 3.36 6.82 5.24 10.87 5.66 4.8.23 9.2.45 13.37-2.28 4-2.22 5.08-7.95 3.03-11.8-1.8-2.6-5.3-4.06-8.24-4.85-6.9-1.8-13.64-2.5-20.2-5.56-2.84-1.34-5.17-3.63-6.52-6.46-1-2.3-.8-5.2-.75-7.67.1-5.4 3.88-10.54 8.73-12.73 5.73-2.75 12.33-3.04 18.52-2.1z" id="o"/><path d="M648.22 576.94l7.4.01v58.86l-7.44.01.08-4.3c-7.37 7.2-20.95 6.75-27.6-1.2-4.06-4.5-5.52-11.46-5.3-17.37.28-6.3 2.36-13.1 7.53-17.1 7.56-5.65 18.63-5.3 25.34 1.6l-.02-20.5zm-16.93 22.53c-5.63 2.4-7.9 8.77-7.9 14.5-.25 4.72 1.58 10.28 5.26 13.38 4.73 3.52 12.43 3.3 16.22-1.54 4.22-5.33 4.4-12.84 2.37-19.1-2.28-6.1-9.76-9.87-15.94-7.26z" id="p"/><path d="M765.83 576.94h7.44l-.01 58.88c-2.48 0-4.97-.01-7.45-.01l.07-5.1c-3.42 4.48-8.4 5.9-13.87 5.82-6.02.24-12.32-2.9-15.5-8.07-2.95-4.46-3.42-9.26-4.06-14.43.6-5.46 1.2-10.5 4.6-15.02 6.5-9.05 21.8-9.5 28.9-.95-.26-7.03-.07-14.08-.1-21.1zm-17.38 22.64c-5.98 2.46-7.43 8.6-7.94 14.45.2 5.84 2.1 12 7.7 14.75 4.1 1.6 9.4 1.5 12.68-1.84 5.44-4.93 6.02-14.02 3.46-20.55-2.36-6.1-9.84-9.54-15.9-6.8z" id="q"/><path d="M783.8 576.9l7.42.1.01 9.27h-7.45l.02-9.4z" id="r"/><path d="M909.47 576.94h7.4l.01 9.36h-7.4l-.01-9.37z" id="s"/><path d="M886.68 580.85c2.43-.24 4.9-.15 7.35-.16l.04 12.43 8 .01v6.76h-8L894 622c.06 2.06-.15 4.35.8 6.22 2.15 1 4.94.68 7.27.83l.03 6.8c-4-.07-8.83.15-12.6-1.36-2.53-1.36-2.9-3.83-2.93-6.45l.01-28.15h-7.4l-.02-6.78 7.44-.01c.04-4.08-.22-8.2.1-12.27z" id="t"/><path d="M505.8 580.7h8.02l.02 12.4 8.05.01v6.78c-2.68-.01-5.36-.01-8.03 0l-.05 24.1c.1 1.44-.13 3.15.83 4.32 2.22.8 4.9.6 7.23.73l.03 6.8c-3.97-.05-8.7.15-12.45-1.3-3.6-1.78-3.07-6.1-3.55-9.46-.27-8.4 0-16.8-.1-25.18h-6.85l-.01-6.76 6.85-.01.03-12.4z" id="u"/><path d="M547 591.87c4.1.2 8.56.63 11.92 3.25 3.23 2.5 3.7 7.04 3.83 10.84v23.32l3.7.5.04 6.25c-2.36.2-5 .73-7.33.23-2.6-.87-3.1-2.92-4.26-5.13-5.1 5.5-12.8 6.26-19.78 4.68-3.93-.9-7.3-3.67-8.04-7.76-.73-4.85-.6-10.13 3.78-13.25 6.45-4.42 15.12-3.46 21.26-5.72 3.4-1.33 2.37-3.7 2.77-6.66-4.65-4.84-12.38-5.13-17.45-.84-.9 1.52-1.23 3.44-1.7 5.13l-7.87-.03c.98-3.56 1.14-7.2 4.05-9.77 3.98-4.14 9.6-4.9 15.1-5.04zm-12.25 29.53l.1 4.94c5 6.04 17.4 3.83 19.65-3.86.4-2.55.18-5.23.2-7.8-4.6 1.32-9.4 1.37-14 2.56-2.6.64-4.1 2.38-5.92 4.16z" id="v"/><path d="M603.2 594.76c3.87 3.04 4.7 7.57 4.77 12.24l-.03 28.83-7.4-.04.01-27.8c.01-2.9-.62-5.63-2.93-7.55-4.22-3.2-10.86-1.9-14.2 1.96-2.5 2.64-3.28 6.03-3.3 9.57l.02 23.84h-7.46v-42.68l6.82.01-.02 5.75c2.1-2.62 4.2-4.93 7.5-5.93 5-1.6 11.9-1.52 16.2 1.8z" id="w"/><path d="M684 591.87c4.2.25 9.15.7 12.32 3.8 2.78 2.63 3.17 6.7 3.27 10.3l-.02 23.33 4.3.5.05 5.7c-2.6.78-5.03 1.44-7.77.8-2.57-.83-3.16-2.98-4.5-5.07-5.1 5.52-13.43 6.27-20.32 4.43-4.02-1.03-7.25-4.36-7.64-8.58-.26-3.47-.4-7.45 1.96-10.3 3.13-4.06 9.36-5 14.1-5.9 3.57-.68 9.12-.45 11.53-3.6.35-1.57.33-3.24.42-4.84-4.3-4.38-10.92-5.15-16.07-1.84-2.18 1.57-2.4 3.74-3.12 6.14l-7.52-.01c.57-3.27.54-6.2 2.85-8.83 4.05-5 10.06-5.93 16.14-6.03zm-12.38 29.47l.03 5.06c5 5.78 16.85 3.87 19.5-3.4.67-2.6.33-5.57.4-8.25-4.73 1.24-9.67 1.32-14.37 2.6-2.44.66-3.8 2.34-5.56 4z" id="x"/><path d="M731.74 591.65l.06 8c-4.07.73-8.12.8-11.07 4.1-3.1 3.1-3.68 7.02-3.8 11.2l-.02 20.84c-2.68 0-5.36-.01-8.04 0v-42.68l7.46-.01-.07 7.82c1.64-2.52 3.2-5.18 5.87-6.77 3-1.88 6.2-1.97 9.62-2.53z" id="y"/><path d="M856.94 591.93c4.7.03 10.7.42 14.16 4 1.84 2.2 2.5 5.2 2.48 8v25.37l4.3.45-.02 6.18c-2.64.22-6.14 1.14-8.6-.04-1.83-.66-2.13-3.2-2.9-4.8-6.47 5.97-17.65 7.47-25.02 2.43-5.7-5.23-4.93-16.4 2.36-19.9 5.24-2.47 11.77-2.82 17.28-3.82 1.74-.37 4.15-1.07 4.8-2.94 1.35-3.2-.9-6.6-4.05-7.5-4.64-1.7-8.6-.25-12.9 1.47l-2.38 5.9-7.22-.1c.48-3.17.67-6.1 2.75-8.72 3.3-4.72 9.63-5.66 14.95-6zm9.24 22.54c-5.32 1.76-11.12 1.54-16.33 3.45-4.12 1.37-5.98 7.45-2.15 10.18 5.5 3.54 14.85 1.5 17.63-4.78 1.14-2.58.76-5.95.85-8.74v-.1z" id="z"/><path d="M939.46 592.7c7.15-1.92 15.64-.6 20.85 4.98 4.82 4.52 6.46 12 6.12 18.37-.53 7.44-3.75 15.15-10.9 18.42-7.8 3.62-19.1 2.68-25.1-3.96-6.35-7.13-6.9-18.1-3.6-26.73 2.07-5.6 6.97-9.52 12.63-11.08zm1.85 6.82c-6.23 2.54-8.7 9.16-8.3 15.5-.1 6.37 3.56 13.1 10.12 14.5 5.1.96 10.08-1.2 12.8-5.58 3.17-5.84 3.54-13.1.1-18.93-2.36-5.2-9.57-7.8-14.73-5.5z" id="AA"/><path d="M989.4 592.6c5.47-1.4 13.3-.8 16.93 4.14 2.66 3.08 2.76 7.4 2.88 11.27l-.04 27.8h-7.46l.02-27.86c0-3.03-.87-6.36-3.64-8-4.65-2.77-10.8-.9-14.07 3.1-2.34 2.82-2.76 6.4-2.74 9.93l.02 22.83-7.44-.02v-42.66l6.8-.02-.01 5.76c2.53-2.85 4.82-5.48 8.75-6.3z" id="AB"/><path d="M783.8 593.1l7.44.04v42.67l-7.44-.02v-42.7z" id="AC"/><path d="M799.4 593.26c11.07-.35 22.22-.03 33.3-.13l-.1 5.2-25.4 30.6 26.7-.01.04 6.87h-36.62c.14-1.9-.14-4.14.47-5.94 2.27-3.6 5.44-6.66 8.07-10l16.42-19.94-23.06-.04c.03-2.2-.01-4.43.2-6.63z" id="AD"/><path d="M909.47 593.12l7.4.01.01 42.7c-2.48-.01-4.95 0-7.43 0l.01-42.7z" id="AE"/><path d="M207.02 597.54c9.73-.16 19.62 1.64 29.07 3.86-5.02 9.22-10.85 17.97-17.8 25.86-3.8-.7-7.64-1.14-11.48-1.56.14-9.37-.3-18.8.2-28.16z" id="AF"/><path d="M199.67 597.37l-.01 28.63c-3.72.4-7.36 1-11.02 1.77-6.63-8.27-13.07-17.2-17.82-26.7 9.53-2 19.1-3.58 28.85-3.7z" id="AG"/><path d="M163.35 603.2c5.15 9.68 11.23 18.64 17.88 27.35-1.74.75-3.5 1.68-5.34 2.16-1.43-.03-2.9-.82-4.2-1.4-10.32-5.14-19.9-12-27.88-20.35 6.35-3.03 12.85-5.56 19.53-7.76z" id="AH"/><path d="M243.53 603.52c6.66 2.07 13 4.76 19.3 7.72-8.14 8.32-17.77 15.32-28.3 20.33-2.6 1.76-5.85-1-8.43-1.88 6.7-8.2 12.2-17 17.4-26.17z" id="AI"/><path d="M136.9 614.88c9.35 9.35 19.66 17.22 31.53 23.13-1.4.96-2.83 2.37-4.48 2.87-1.64-.17-3.17-.66-4.72-1.2-12.14-4.28-23.7-10.1-34.17-17.6 3.87-2.6 7.6-5.22 11.84-7.2z" id="AJ"/><path d="M269.85 615.08c3.86 2.03 7.54 4.62 11.2 7.02-11.24 8.04-23.8 14.25-36.95 18.48l-4.1-3.46c11.25-5.6 20.88-13.35 29.87-22.04z" id="AK"/><path d="M205 633.22c11-.17 21.43 3.57 30.4 9.8-20.3 4.98-42.03 5.37-62.4.46 9.42-6.6 20.38-10.6 31.98-10.26z" id="AL"/></defs><g transform="matrix(1.359316 0 0 1.359316 3.219221 -195.348393)" fill="#0054a5"><use xlink:href="#A"/><use xlink:href="#B"/><use xlink:href="#C"/><use xlink:href="#D"/><use xlink:href="#E"/><use xlink:href="#F"/><use xlink:href="#G"/><use xlink:href="#H"/><use xlink:href="#I"/><use xlink:href="#J"/><use xlink:href="#K"/><use xlink:href="#L"/><use xlink:href="#M"/><use xlink:href="#N"/><use xlink:href="#O"/><use xlink:href="#P"/><use xlink:href="#Q"/><use xlink:href="#R"/><use xlink:href="#S"/><use xlink:href="#T"/><use xlink:href="#U"/><use xlink:href="#V"/><use xlink:href="#W"/><use xlink:href="#X"/><use xlink:href="#Y"/><use xlink:href="#Z"/><use xlink:href="#a"/><use xlink:href="#b"/><use xlink:href="#c"/><use xlink:href="#d"/><use xlink:href="#e"/><use xlink:href="#f"/><use xlink:href="#g"/><use xlink:href="#h"/><use xlink:href="#i"/><use xlink:href="#j"/><use xlink:href="#k"/><use xlink:href="#l"/><use xlink:href="#m"/><use xlink:href="#n"/><use xlink:href="#o"/><use xlink:href="#p"/><use xlink:href="#q"/><use xlink:href="#r"/><use xlink:href="#s"/><use xlink:href="#t"/><use xlink:href="#u"/><use xlink:href="#v"/><use xlink:href="#w"/><use xlink:href="#x"/><use xlink:href="#y"/><use xlink:href="#z"/><use xlink:href="#AA"/><use xlink:href="#AB"/><use xlink:href="#AC"/><use xlink:href="#AD"/><use xlink:href="#AE"/><use xlink:href="#AF"/><use xlink:href="#AG"/><use xlink:href="#AH"/><use xlink:href="#AI"/><use xlink:href="#AJ"/><use xlink:href="#AK"/><use xlink:href="#AL"/></g></svg>