<svg width="103" height="25" viewBox="0 0 103 25" fill="none" xmlns="http://www.w3.org/2000/svg">
<path d="M90.087 8.3004C90.658 8.3004 91.1277 8.00448 91.1923 7.62152L91.7563 1.26449C91.7563 0.636098 91.0177 0.11911 90.0888 0.11911C89.1599 0.11911 88.4248 0.636098 88.4248 1.26449L88.987 7.62152C89.0499 8.00448 89.5196 8.3004 90.0888 8.3004H90.087Z" fill="#061B23"/>
<path d="M86.6392 10.287C86.9255 9.79443 86.9028 9.24089 86.6025 8.99545L81.3608 5.33127C80.816 5.01621 79.9989 5.39568 79.5344 6.1964C79.0699 6.99712 79.152 7.89184 79.695 8.20517L85.4972 10.898C85.8604 11.0321 86.3546 10.7744 86.6392 10.2818V10.2853H86.6374L86.6392 10.287Z" fill="#061B23"/>
<path d="M93.5338 10.2838C93.8201 10.7764 94.3125 11.034 94.6757 10.9L100.48 8.20712C101.026 7.8938 101.105 6.99908 100.642 6.19836C100.176 5.39763 99.3587 5.01816 98.8139 5.33323L93.5722 8.9974C93.2719 9.24284 93.2509 9.79638 93.5355 10.289V10.2855H93.5338V10.2838Z" fill="#061B23"/>
<path d="M90.087 16.2402C90.658 16.2402 91.1277 16.5344 91.1923 16.9173L91.7563 23.2743C91.7563 23.9045 91.0177 24.418 90.0888 24.418C89.1599 24.418 88.4248 23.9027 88.4248 23.2743L88.987 16.9173C89.0499 16.5344 89.5196 16.2402 90.0888 16.2402H90.087Z" fill="#061B23"/>
<path d="M93.5338 14.2543C93.8201 13.7617 94.3125 13.5058 94.6757 13.6416L100.48 16.3327C101.026 16.6477 101.105 17.5425 100.642 18.3449C100.176 19.1439 99.3587 19.5234 98.8139 19.2101L93.5722 15.5476C93.2719 15.2987 93.2509 14.7452 93.5355 14.2543H93.5338Z" fill="#061B23"/>
<path d="M86.6392 14.2523C86.9255 14.745 86.9028 15.2985 86.6025 15.5457L81.3608 19.2081C80.816 19.5214 79.9989 19.142 79.5344 18.343C79.0699 17.5423 79.152 16.6458 79.695 16.3307L85.4972 13.6396C85.8604 13.5038 86.3546 13.7597 86.6392 14.2523Z" fill="#061B23"/>
<path d="M57.0273 15.5346C57.0273 15.7295 57.0099 15.9315 56.9557 16.1073C56.734 16.8419 55.9709 17.4615 55.0176 17.4615C54.2231 17.4615 53.591 17.0124 53.591 16.0603C53.591 14.6051 55.1974 14.203 57.0273 14.2117V15.5328V15.5346ZM59.8961 13.0001C59.8961 10.5997 58.8677 8.48824 55.393 8.48824C53.6085 8.48824 52.1924 8.98782 51.4189 9.43344L51.9847 11.3621C52.6901 10.9183 53.8163 10.5492 54.8814 10.5492C56.6449 10.544 56.933 11.5432 56.933 12.1855V12.3369C53.0899 12.3317 50.6611 13.6564 50.6611 16.3614C50.6611 18.0116 51.8974 19.5591 54.0485 19.5591C55.3703 19.5591 56.4773 19.0334 57.1391 18.1892H57.2054C57.2054 18.1892 57.6437 20.0204 60.0637 19.3189C59.9363 18.5564 59.8961 17.7453 59.8961 16.767V13.0001Z" fill="#061B23"/>
<path d="M0.0195312 5.2187C0.0195312 5.2187 2.53038 15.4766 2.93198 17.1425C3.39993 19.0869 4.24328 19.8005 6.67207 19.3184L8.24005 12.9579C8.63815 11.3773 8.90355 10.2511 9.16022 8.6444H9.20562C9.38547 10.2667 9.64039 11.3825 9.96865 12.9631C9.96865 12.9631 10.6077 15.8509 10.9342 17.367C11.2625 18.8832 12.1739 19.8388 14.5538 19.3184L18.2904 5.2187H15.2732L13.9968 11.3146C13.6546 13.0884 13.3438 14.4757 13.1029 16.0981H13.0592C12.8409 14.4897 12.5633 13.1598 12.2158 11.4313L10.8871 5.2187H7.74416L6.32285 11.2746C5.92126 13.1145 5.54411 14.6011 5.3049 16.1694H5.26125C5.0168 14.6933 4.68853 12.8256 4.33582 11.0431C4.33582 11.0431 3.49247 6.71048 3.19564 5.2187H0.0195312Z" fill="#061B23"/>
<path d="M23.9904 15.5346C23.9904 15.7295 23.973 15.9315 23.9188 16.1073C23.6971 16.8419 22.934 17.4615 21.9807 17.4615C21.1862 17.4615 20.5541 17.0124 20.5541 16.0603C20.5541 14.6051 22.1605 14.203 23.9904 14.2117V15.5328V15.5346ZM26.8592 13.0001C26.8592 10.5997 25.8308 8.48824 22.3561 8.48824C20.5716 8.48824 19.1538 8.98782 18.382 9.43344L18.9478 11.3621C19.6549 10.9183 20.7794 10.5492 21.8445 10.5492C23.608 10.544 23.8979 11.5432 23.8979 12.1855V12.3369C20.053 12.3317 17.626 13.6564 17.626 16.3614C17.626 18.0116 18.8622 19.5591 21.0116 19.5591C22.3351 19.5591 23.4422 19.0334 24.1039 18.1892H24.1685C24.1685 18.1892 24.6085 20.0204 27.0268 19.3189C26.8994 18.5564 26.8592 17.7453 26.8592 16.767V13.0001Z" fill="#061B23"/>
<path d="M31.6506 16.3244V5.2187H28.7783V19.3184H31.6506V16.3244Z" fill="#061B23"/>
<path d="M69.2256 5.2187V15.6194C69.2256 17.0537 69.4962 18.0581 70.0759 18.6726C70.5823 19.2087 71.4152 19.5568 72.4139 19.5568C73.2625 19.5568 74.0989 19.3967 74.4917 19.2505L74.4551 17.0137C74.1617 17.0851 73.8248 17.1425 73.3638 17.1425C72.386 17.1425 72.0577 16.5176 72.0577 15.2295V11.2502H74.5581V8.55214H72.0577V5.2187H69.2256Z" fill="#061B23"/>
<path d="M61.8115 8.7265V19.3187H64.7746V13.8946C64.7746 13.6022 64.7921 13.3463 64.8392 13.1131C65.0592 11.9764 65.9305 11.2505 67.1807 11.2505C67.5247 11.2505 67.7691 11.2871 68.0363 11.3254V8.55243C67.8128 8.50717 67.6609 8.48628 67.3833 8.48628C66.278 8.48628 65.0191 9.19823 64.4917 10.7231H64.4114V8.72476H61.8115V8.7265Z" fill="#061B23"/>
<path d="M33.6621 8.72661V19.3188H36.5501V13.1062C36.5501 12.8155 36.5833 12.5074 36.6863 12.2393C36.9255 11.6144 37.5087 10.8816 38.4411 10.8816C39.6057 10.8816 40.1505 11.8633 40.1505 13.2803V19.317H43.035V13.0296C43.035 12.7511 43.0734 12.4169 43.1555 12.1714C43.393 11.4595 44.0216 10.8816 44.8876 10.8816C46.068 10.8816 46.6354 11.8459 46.6354 13.5135V19.317H49.5217V13.0784C49.5217 9.78843 47.8455 8.48639 45.9545 8.48639C45.1164 8.48639 44.4563 8.69527 43.8574 9.06082C43.3546 9.36892 42.9041 9.80584 42.5112 10.3803H42.4693C42.0136 9.23837 40.9397 8.48639 39.5411 8.48639C37.7444 8.48639 36.936 9.39503 36.4471 10.1644H36.4052V8.72486H33.6639L33.6621 8.72661Z" fill="#061B23"/>
<path d="M101.629 19.1473H101.683C101.746 19.1473 101.798 19.1264 101.798 19.076C101.798 19.0308 101.765 19.0012 101.693 19.0012C101.664 19.0012 101.643 19.0047 101.631 19.0064V19.1473H101.629ZM101.625 19.4238H101.51V18.9351C101.555 18.9264 101.618 18.9177 101.7 18.9177C101.795 18.9177 101.836 18.9334 101.871 18.956C101.897 18.9768 101.92 19.0168 101.92 19.0603C101.92 19.1177 101.878 19.1595 101.817 19.1769V19.1838C101.864 19.1995 101.892 19.2377 101.908 19.3038C101.924 19.3786 101.932 19.4082 101.945 19.4238H101.821C101.805 19.4064 101.796 19.3647 101.782 19.3073C101.774 19.2534 101.744 19.229 101.679 19.229H101.625V19.4238ZM101.7 18.7768C101.484 18.7768 101.322 18.9542 101.322 19.1699C101.322 19.3856 101.484 19.563 101.707 19.563C101.924 19.5665 102.084 19.389 102.084 19.1699C102.084 18.9507 101.925 18.7768 101.706 18.7768H101.702H101.7ZM101.706 18.6777C101.988 18.6777 102.208 18.8968 102.208 19.1699C102.208 19.443 101.988 19.6656 101.702 19.6656C101.416 19.6656 101.194 19.4499 101.194 19.1699C101.194 18.8899 101.419 18.6777 101.702 18.6777H101.706Z" fill="#061B23"/>
</svg>
