<svg width="59" height="41" viewBox="0 0 59 41" fill="none" xmlns="http://www.w3.org/2000/svg">
<path d="M26.2772 4.92147C26.5369 4.92147 26.7019 4.65927 26.8676 4.25274C27.0803 3.75089 28.0728 2.82 29.4412 2.82C30.4808 2.82 31.4966 3.46553 32.3229 4.13421C33.1028 4.77845 33.7402 4.80224 33.7402 5.08959C33.7402 5.18432 33.5752 5.25581 33.3858 5.25581C32.6072 5.25581 31.2375 4.08657 29.7731 4.08657C28.1186 4.08657 26.7728 5.51802 26.7728 6.33042C26.7728 6.56942 26.8676 6.75944 27.1737 6.75944C27.5295 6.75944 27.9304 5.90075 28.8508 5.90075C29.7016 5.90075 30.4106 6.71245 31.5907 6.54498C31.7332 6.52113 31.7789 6.73629 31.6841 6.78399C29.3232 8.12075 26.8205 9.38662 26.8205 13.6134C26.8205 16.8602 28.6388 19.9886 32.6529 19.9886C36.8347 19.9886 38.8418 17.2667 38.8418 13.6134C38.8418 10.4612 36.9294 7.5493 34.3545 7.5493C34.2598 7.5493 34.1663 7.5493 34.0709 7.57249C33.9052 7.61954 33.7628 7.76191 33.7628 7.97772C33.7628 8.23992 33.835 8.31271 34 8.43059C35.6538 9.60183 36.2217 10.7479 36.2217 13.9232C36.2217 16.1676 35.2994 18.6602 32.9835 18.6602C30.4808 18.6602 29.4179 15.977 29.4179 13.567C29.4179 10.7717 30.1263 9.45815 31.8756 8.14589C33.7628 6.7125 36.0077 6.04382 36.0077 4.73086C36.0077 4.08662 35.3232 3.96684 34.874 3.94365C34.4718 3.91915 33.9053 3.77553 33.6217 3.36965C32.4647 2.15197 31.1176 0.886749 29.5134 0.886749C27.222 0.886749 25.8749 3.32186 25.8749 4.2296C25.8749 4.58843 25.9452 4.92147 26.2772 4.92147ZM49.144 8.50592H49.5057C49.6146 8.50592 49.759 8.61547 49.795 8.7804C49.8492 8.92601 49.8672 9.01746 49.8672 9.49352V17.6661C49.8672 18.1583 49.8492 18.2517 49.795 18.3966C49.759 18.5248 49.6326 18.6343 49.5057 18.6343H49.144C48.892 18.6343 48.6922 18.854 48.6922 19.1284C48.6922 19.5304 48.892 19.658 49.5056 19.658H56.5961L56.941 19.6393C57.2278 19.6219 57.3187 19.5491 57.445 19.2379L57.9697 18.0139C58.078 17.7582 58.1154 17.5927 58.1154 17.5018C58.1154 17.2454 57.9343 17.0631 57.6449 17.0631C57.409 17.0631 57.3188 17.1352 57.1028 17.4631C56.7406 17.9946 56.3977 18.2691 55.98 18.3412C55.6719 18.3966 55.2014 18.4153 54.2991 18.4153C53.3394 18.4153 52.9797 18.3786 52.7425 18.2864C52.4531 18.1769 52.3996 17.9772 52.3996 17.0077V14.1184C52.3996 13.7164 52.4531 13.5334 52.562 13.46C52.6536 13.4065 52.7799 13.3878 53.3032 13.3878H54.7148C55.1859 13.3878 55.4186 13.1688 55.4186 12.7468C55.4186 12.3081 55.2388 12.1451 54.7148 12.1451H52.3996V9.80342C52.3996 8.83517 52.5092 8.70761 53.5024 8.70761H54.7148C55.8537 8.70761 56.1966 8.83517 56.5601 9.36537C56.6864 9.53089 56.758 9.63849 56.776 9.67651C56.8482 9.74934 56.941 9.82213 57.03 9.85814C57.0828 9.89486 57.1556 9.91487 57.2279 9.91487C57.5012 9.91487 57.7171 9.71263 57.7171 9.49357C57.7171 9.43945 57.681 9.32865 57.6269 9.18308L57.1028 7.83026C56.9939 7.55448 56.8482 7.46429 56.4706 7.46429H49.5057C48.892 7.46429 48.6735 7.5925 48.6735 7.99383C48.6735 8.26756 48.892 8.50592 49.144 8.50592ZM48.3126 25.9095C48.872 26.5679 49.0338 26.6768 50.7528 27.8827C51.7834 28.6152 52.2726 29.0159 52.6696 29.4566C53.0499 29.8946 53.2484 30.3333 53.2484 30.8275C53.2484 31.7951 52.4531 32.4535 51.2774 32.4535C50.2481 32.4535 49.2335 31.9052 48.6019 31.0104L48.348 30.6438C48.2384 30.4976 48.0759 30.4061 47.8955 30.4061C47.5707 30.4061 47.3173 30.6438 47.3173 30.973C47.3173 31.0639 47.3335 31.2294 47.3715 31.3389L47.8233 33.1666C47.9309 33.6072 48.0759 33.7702 48.3834 33.7702C48.5458 33.7702 48.6367 33.7341 48.7992 33.6072C48.9629 33.4597 49.0337 33.423 49.1794 33.423C49.2883 33.423 49.3232 33.4423 49.5771 33.5144C50.1018 33.68 50.8069 33.7702 51.4766 33.7702C53.8639 33.7702 55.4185 32.3806 55.4185 30.2598C55.4185 29.329 55.0576 28.4135 54.4408 27.7726C53.8639 27.1695 53.3934 26.8055 51.9651 25.7986C51.5855 25.5242 51.2948 25.3245 51.0776 25.1583C50.7172 24.8852 50.4266 24.592 50.248 24.3183C50.1017 24.116 50.0476 23.8422 50.0476 23.5684C50.0476 22.8191 50.5909 22.3437 51.4224 22.3437C52.0186 22.3437 52.6328 22.544 53.1233 22.9286C53.5023 23.2218 53.5745 23.2952 53.9915 23.9156C54.1533 24.1533 54.2616 24.2261 54.4607 24.2261C54.7675 24.2261 54.9854 24.0251 54.9854 23.7867C54.9854 23.7326 54.9854 23.6237 54.9493 23.5322L54.5149 21.5577C54.4408 21.2279 54.2797 21.045 54.0076 21.045C53.8639 21.045 53.8085 21.063 53.628 21.1912C53.4669 21.3013 53.3393 21.3548 53.2123 21.3548C53.1401 21.3548 53.0499 21.3387 52.959 21.32C52.707 21.2652 52.562 21.2279 52.5065 21.2099C51.9825 21.101 51.4585 21.045 50.9512 21.045C48.9628 21.045 47.6248 22.2161 47.6248 23.989C47.6249 24.7209 47.8595 25.378 48.3126 25.9095ZM39.4683 8.50592H39.8131C39.9388 8.50592 40.0838 8.59806 40.1186 8.74428C40.1721 8.88925 40.1927 8.96333 40.1927 9.45551V17.7215C40.1927 18.1769 40.1721 18.269 40.1186 18.3966C40.0838 18.5247 39.9388 18.6343 39.8131 18.6343H39.4683C39.2156 18.6343 39.0164 18.854 39.0164 19.1284C39.0164 19.5303 39.2156 19.6579 39.813 19.6579H46.776C47.3355 19.6579 47.4812 19.5677 47.6622 19.1103L48.2217 17.7214L48.2952 17.5191C48.3312 17.4457 48.3493 17.3735 48.3493 17.3001C48.3493 17.0811 48.1308 16.8981 47.8607 16.8981C47.6435 16.8981 47.534 16.9715 47.3174 17.2814C46.8836 17.9043 46.649 18.1408 46.3416 18.269C46.0341 18.3965 45.835 18.3965 44.7502 18.3965C43.5024 18.3965 43.1588 18.3785 42.9777 18.2516C42.7605 18.1234 42.7257 17.9391 42.7257 17.1351V9.45546C42.7257 8.98004 42.7257 8.87054 42.7792 8.74423C42.8321 8.59801 42.9951 8.50587 43.1588 8.50587H43.5572C43.8085 8.50587 44.0264 8.28617 44.0264 7.99373C44.0264 7.5924 43.8085 7.46419 43.1588 7.46419H39.813C39.1975 7.46419 38.981 7.5924 38.981 7.99373C38.981 8.28622 39.1975 8.50592 39.4683 8.50592ZM36.5369 31.4131C36.5195 31.8318 36.4834 31.8679 35.9227 31.9613C35.6152 31.9974 35.4347 32.1797 35.4347 32.4535C35.4347 32.601 35.5263 32.7653 35.6519 32.8555C36.2862 33.3503 38.437 33.7703 40.3171 33.7703C42.3255 33.7703 43.7177 33.3677 44.7857 32.5083C46.1238 31.4305 46.8637 29.6028 46.8637 27.3906C46.8637 25.4148 46.2862 23.7507 45.2188 22.6723C44.1154 21.5391 42.6316 21.0451 40.4634 21.0451C38.4183 21.0451 36.3023 21.429 35.6694 21.9244C35.5263 22.0333 35.4347 22.1969 35.4347 22.3612C35.4347 22.6369 35.6345 22.8192 35.9781 22.8366C36.466 22.874 36.5194 22.9468 36.5369 23.4228L36.5568 23.8242V31.0104L36.5369 31.4131ZM39.0886 24.0619C39.0886 23.0202 39.1241 22.8005 39.3587 22.6182C39.6307 22.3985 40.1553 22.2523 40.7154 22.2523C42.8676 22.2523 44.1515 24.1533 44.1515 27.3712C44.1515 30.5904 42.8676 32.4535 40.6433 32.4535C39.9562 32.4535 39.4122 32.2711 39.2156 31.9973C39.1067 31.815 39.0886 31.6668 39.0886 30.9376V24.0619ZM8.22238 22.5441C10.1038 22.5441 10.3216 22.6182 10.8276 23.3855C11.0087 23.6599 11.135 23.7695 11.3335 23.7695C11.6056 23.7695 11.8028 23.5685 11.8028 23.3301C11.8028 23.258 11.786 23.1845 11.7325 23.0383L11.262 21.7949C11.1711 21.5752 11.0809 21.429 10.9733 21.3749C10.8811 21.3202 10.8276 21.3015 10.5382 21.3015H3.90076C3.30392 21.3015 3.10538 21.429 3.10538 21.831C3.10538 22.1061 3.28586 22.3438 3.53851 22.3438H3.90076C4.02774 22.3438 4.15406 22.4347 4.20822 22.5809C4.2443 22.7098 4.26302 22.8193 4.26302 23.2953V31.5033C4.26302 31.9974 4.2443 32.0889 4.20822 32.2158C4.15406 32.3647 4.02774 32.4536 3.90076 32.4536H3.53851C3.28586 32.4536 3.06929 32.6906 3.06929 32.9664C3.06929 33.3677 3.28586 33.4966 3.90076 33.4966H7.22849C7.89815 33.4966 8.11472 33.3677 8.11472 32.9664C8.11472 32.6906 7.91557 32.4536 7.64356 32.4536H7.22844C7.08405 32.4536 6.92164 32.3647 6.84882 32.2158C6.79402 32.089 6.79402 31.9974 6.79402 31.5033V27.8654C6.79402 27.4809 6.81208 27.3713 6.93841 27.3179C7.01123 27.2812 7.10212 27.2618 7.19301 27.2618H9.03768C9.54428 27.2618 9.81434 27.0428 9.81434 26.6395C9.81434 26.2195 9.56234 26.0191 9.03768 26.0191H6.79402V23.2953C6.79407 22.5808 6.90297 22.5441 8.22238 22.5441ZM54.5524 34.9672H4.15985C2.61814 34.9672 1.36707 36.2292 1.36707 37.7889C1.36707 39.3466 2.61814 40.6112 4.15985 40.6112H54.5524C56.0934 40.6112 57.3439 39.3466 57.3439 37.7889C57.3439 36.2292 56.0934 34.9672 54.5524 34.9672ZM11.0093 38.8119L11.1343 38.8969H11.2491C11.3464 38.8969 11.4289 38.9949 11.4289 39.1018C11.4289 39.2409 11.3548 39.2957 11.1343 39.2957H9.83241C9.60102 39.2957 9.51463 39.241 9.51463 39.1018C9.51463 38.9948 9.60097 38.8969 9.70798 38.8969H9.83236L9.96193 38.8119C9.98449 38.7571 9.98449 38.7236 9.98449 38.5317V37.0687L8.81657 38.2192C8.74759 38.2933 8.66509 38.3365 8.58199 38.3365C8.49499 38.3365 8.45696 38.3087 8.36991 38.2192L7.27162 37.0358V38.5317C7.27162 38.7133 7.27162 38.7571 7.29028 38.8119L7.41531 38.8969H7.55322C7.66472 38.8969 7.74592 38.9949 7.74592 39.1018C7.74592 39.2409 7.67245 39.2957 7.41526 39.2957H6.48262C6.25637 39.2957 6.16484 39.241 6.16484 39.1018C6.16484 38.9948 6.25637 38.8969 6.35754 38.8969H6.48257L6.6076 38.8119C6.63081 38.7649 6.6353 38.7004 6.6353 38.5317V36.8954C6.6353 36.7047 6.63076 36.6577 6.6076 36.6055L6.48257 36.5089H6.35754C6.25632 36.5089 6.16484 36.4245 6.16484 36.3124C6.16484 36.1675 6.25637 36.1127 6.48262 36.1127H7.53899C7.65114 36.1127 7.71498 36.1404 7.86706 36.3079L8.86413 37.414L10.0256 36.2608C10.1461 36.1443 10.2196 36.1127 10.3221 36.1127H11.1342C11.3547 36.1127 11.4288 36.1675 11.4288 36.3124C11.4288 36.4245 11.3463 36.5089 11.2489 36.5089H11.1007L10.9944 36.5913C10.9718 36.6384 10.9718 36.7047 10.9718 36.8955V38.5317C10.972 38.7133 10.972 38.7571 11.0093 38.8119ZM19.688 39.2957H18.2256C18.0876 39.2957 18.0129 39.2178 18.0129 39.1018C18.0129 38.9613 18.0915 38.9233 18.2758 38.8931C18.4331 38.8641 18.446 38.7797 18.3867 38.6309L18.368 38.5838C18.3319 38.4904 18.2803 38.4814 18.1199 38.4814H17.0577C16.9513 38.4814 16.8959 38.4904 16.8688 38.5039L16.7985 38.5607L16.7863 38.5942C16.7392 38.7005 16.7901 38.8641 16.979 38.8867C17.1582 38.9105 17.233 38.9614 17.233 39.0922C17.233 39.2217 17.1363 39.2958 16.9932 39.2958H15.8401C15.6686 39.2958 15.59 39.2411 15.59 39.1148C15.59 38.9949 15.6506 38.9434 15.7847 38.9106C15.8807 38.8867 15.9142 38.8642 15.9548 38.812C15.9871 38.7707 16.0522 38.6445 16.1166 38.5195L17.2007 36.3497C17.3257 36.1017 17.561 36.045 17.7776 36.045C17.9755 36.045 18.2255 36.1165 18.3402 36.3497L19.3883 38.4357C19.5494 38.7572 19.5997 38.8255 19.7061 38.8641L19.8027 38.897C19.8724 38.9195 19.9278 38.9801 19.9278 39.078C19.9278 39.2178 19.8447 39.2957 19.688 39.2957ZM28.2237 39.2957H27.3606C27.1673 39.2957 27.0731 39.2371 26.9404 39.0921L25.9671 37.9873C25.8704 37.8791 25.8337 37.8147 25.8337 37.767C25.8337 37.6748 25.9124 37.6317 26.1051 37.6137C26.5949 37.5718 26.8386 37.3946 26.8386 37.021C26.8386 36.601 26.5021 36.4109 26.0825 36.4109C25.9201 36.4109 25.7589 36.4425 25.6764 36.5023C25.603 36.5591 25.5752 36.6525 25.5604 36.8535L25.5475 37.0822V38.5195C25.5475 38.7005 25.5475 38.752 25.5662 38.7939C25.5894 38.8538 25.6487 38.8931 25.7002 38.8931H25.8427C25.94 38.8931 26.0187 38.9801 26.0187 39.0922C26.0187 39.241 25.94 39.2958 25.7002 39.2958H24.4034C24.1772 39.2958 24.0844 39.2411 24.0844 39.0922C24.0844 38.9801 24.1772 38.8931 24.2784 38.8931H24.4034C24.4718 38.8931 24.5143 38.8538 24.5369 38.7939C24.5549 38.7417 24.5549 38.7005 24.5549 38.5195V36.9185C24.5549 36.7272 24.5233 36.695 24.3429 36.6847C24.2049 36.6763 24.1269 36.6119 24.1269 36.4895C24.1269 36.4283 24.1637 36.3581 24.2049 36.3162C24.4305 36.1359 25.3071 36.045 26.0032 36.045C27.1942 36.045 27.8504 36.3542 27.8504 36.9411C27.8504 37.3463 27.6693 37.6827 27.0286 37.7954L27.6467 38.4757C27.8762 38.7333 28.0431 38.8222 28.2371 38.8538C28.3744 38.8931 28.3944 38.8969 28.4357 38.9195C28.4769 38.9433 28.5201 39.0026 28.5201 39.078C28.5201 39.2178 28.417 39.2957 28.2237 39.2957ZM34.4293 39.2957H33.1318C32.9062 39.2957 32.8153 39.241 32.8153 39.0921C32.8153 38.98 32.9062 38.893 33.0074 38.893H33.1318C33.2014 38.893 33.2426 38.8537 33.2652 38.7938C33.2845 38.7416 33.2845 38.7004 33.2845 38.5194V36.8954C33.2845 36.7124 33.2807 36.6486 33.2652 36.6157C33.2426 36.5642 33.2014 36.5178 33.1318 36.5178H33.0074C32.9062 36.5178 32.8153 36.4334 32.8153 36.3123C32.8153 36.1674 32.9062 36.1126 33.1318 36.1126H34.4293C34.6684 36.1126 34.7477 36.1674 34.7477 36.3123C34.7477 36.4334 34.6684 36.5178 34.5679 36.5178H34.4293C34.3732 36.5178 34.332 36.5539 34.3088 36.6157C34.2849 36.6763 34.2772 36.7046 34.2772 36.8954V38.5194C34.2772 38.6398 34.2817 38.7571 34.3165 38.8119L34.4293 38.8931H34.5679C34.6542 38.8931 34.7477 38.98 34.7477 39.0922C34.7477 39.241 34.6542 39.2957 34.4293 39.2957ZM37.1911 39.2957H36.3158C36.1263 39.2957 36.0664 39.2319 35.9291 39.0921L34.6587 37.823C34.5988 37.7624 34.5749 37.7302 34.5749 37.6922L34.6587 37.5717L35.5778 36.7877C35.7119 36.6724 35.6333 36.53 35.5592 36.53C35.476 36.53 35.427 36.4527 35.427 36.3123C35.427 36.1867 35.4901 36.1126 35.6468 36.1126H37.1183C37.2711 36.1126 37.3542 36.1725 37.3542 36.3078C37.3542 36.4244 37.2936 36.4863 37.1183 36.5088C36.9572 36.53 36.8946 36.53 36.7818 36.559C36.6768 36.5873 36.5421 36.666 36.4531 36.7407L35.6152 37.4693L36.6529 38.4994C36.9256 38.7706 37.0816 38.8537 37.2195 38.893C37.3761 38.9336 37.4508 38.9613 37.4508 39.0921C37.4508 39.2178 37.36 39.2957 37.1911 39.2957ZM45.4148 38.5839L45.1744 39.1894C45.1363 39.2694 45.1106 39.288 44.9907 39.288L44.8508 39.2957H42.0142C41.7745 39.2957 41.6958 39.241 41.6958 39.0922C41.6958 38.9801 41.7745 38.8969 41.8705 38.8969H42.0143L42.12 38.7971C42.1477 38.752 42.1529 38.7004 42.1529 38.5195V36.9095C42.1529 36.7272 42.1477 36.6763 42.12 36.6287C42.1104 36.5642 42.0549 36.5179 42.0143 36.5179H41.8705C41.7745 36.5179 41.6823 36.4244 41.6823 36.3123C41.6823 36.1674 41.7745 36.1126 42.0142 36.1126H44.8231C44.9714 36.1126 45.0223 36.1358 45.05 36.2041L45.2621 36.7556L45.2897 36.8348C45.2769 36.8909 45.1602 36.9411 45.059 36.9411L44.9759 36.9269L44.8882 36.8857L44.8192 36.7981C44.7045 36.6621 44.5022 36.5179 44.0477 36.5179H43.5785C43.1859 36.5179 43.1434 36.5539 43.1434 36.8071V37.3341H44.0477C44.2649 37.3341 44.3249 37.45 44.3249 37.5718C44.3249 37.7019 44.2424 37.8191 44.0477 37.8191H43.4953C43.3516 37.8191 43.2414 37.8094 43.204 37.8372C43.1679 37.8661 43.1434 37.9158 43.1434 38.0233V38.5232C43.1434 38.7738 43.164 38.8254 43.2839 38.8537C43.36 38.8718 43.5166 38.893 43.8917 38.893C44.2423 38.893 44.4267 38.8821 44.5414 38.8686C44.6993 38.8492 44.93 38.5838 45.0454 38.4395C45.1144 38.3506 45.1428 38.3364 45.2388 38.3364C45.36 38.3364 45.4231 38.3835 45.4386 38.444C45.4463 38.4756 45.4418 38.5091 45.4148 38.5839ZM53.3174 37.003C53.2433 37.003 53.1846 36.9746 53.1254 36.8954L53.0687 36.8309C53.001 36.7459 52.8843 36.5823 52.8005 36.5539C52.7232 36.5256 52.6207 36.5179 52.359 36.5179C52.0264 36.5179 51.9845 36.541 51.9845 36.7459V38.5195C51.9845 38.7005 51.9845 38.7417 52.0026 38.7939C52.0265 38.8538 52.0813 38.8931 52.1418 38.8931H52.3352C52.4428 38.8931 52.5234 38.9801 52.5234 39.0922C52.5234 39.241 52.4428 39.2958 52.1837 39.2958H50.7844C50.5356 39.2958 50.4486 39.2411 50.4486 39.0922C50.4486 38.9801 50.5356 38.8931 50.6278 38.8931H50.836C50.8824 38.8931 50.9378 38.8538 50.9597 38.7939C50.9797 38.7417 50.992 38.7005 50.992 38.5195V36.7459C50.992 36.5462 50.9597 36.5179 50.546 36.5179C50.1902 36.5179 50.0155 36.6622 49.8898 36.838L49.8531 36.8908C49.7892 36.9842 49.7338 37.0029 49.6404 37.0029C49.5404 37.0029 49.3999 36.9507 49.3922 36.8908L49.4154 36.7877L49.6281 36.2324C49.6694 36.1164 49.7016 36.1125 49.8672 36.1125H53.106C53.2118 36.1125 53.2169 36.1164 53.264 36.1357L53.3271 36.2324L53.5572 36.8154L53.5772 36.8908C53.5675 36.9469 53.4276 37.003 53.3174 37.003ZM4.99127 19.0151C5.24392 19.7095 5.49722 19.9272 6.02189 19.9272C6.25717 19.9272 6.49175 19.8383 6.6368 19.7275C6.78119 19.5813 6.83534 19.4531 6.99905 19.0151L8.77025 14.005L10.4344 19.0151C10.6504 19.6908 10.923 19.9272 11.4651 19.9272C12.0071 19.9272 12.2424 19.6728 12.5143 18.7773L15.389 9.39879C15.5894 8.7565 15.7164 8.58319 16.0928 8.50263H16.1914C16.3197 8.50263 16.4454 8.59477 16.5002 8.73974C16.5543 8.8686 16.5543 8.96004 16.5543 9.45352V17.6628C16.5543 18.1544 16.5543 18.2458 16.5002 18.3921C16.4634 18.5203 16.3197 18.6124 16.1914 18.6124H15.8304C15.5778 18.6124 15.3606 18.8501 15.3606 19.124C15.3606 19.526 15.5778 19.6542 16.1914 19.6542H19.4837C20.0619 19.6542 20.261 19.526 20.261 19.1426C20.261 18.8501 20.0812 18.6124 19.8272 18.6124H19.4837C19.338 18.6124 19.1943 18.5203 19.1402 18.3921C19.1028 18.2459 19.0854 18.1377 19.0854 17.6628V14.3155C19.0854 13.4754 19.1582 13.402 19.8272 13.402H22.2862C22.6465 13.402 22.8288 13.4574 22.9185 13.5676C23.01 13.6764 23.01 13.7505 23.01 14.4263V17.6628C23.01 18.1376 23.01 18.2458 22.9559 18.3921C22.9017 18.5203 22.7554 18.6124 22.6298 18.6124H22.2862C22.0323 18.6124 21.8151 18.8501 21.8151 19.124C21.8151 19.526 22.0155 19.6542 22.6298 19.6542H25.9201C26.555 19.6542 26.7522 19.526 26.7522 19.124C26.7522 18.8501 26.555 18.6124 26.283 18.6124H25.9201C25.7938 18.6124 25.65 18.5203 25.6126 18.3921C25.5591 18.2459 25.5424 18.1377 25.5424 17.6628V9.45352C25.5424 8.99675 25.5591 8.8686 25.6126 8.73974C25.65 8.61283 25.7938 8.50263 25.9201 8.50263H26.283C26.5357 8.50263 26.7522 8.28363 26.7522 7.99239C26.7522 7.58911 26.5357 7.46095 25.9201 7.46095H22.6298C22.0155 7.46095 21.7977 7.58911 21.7977 7.99239C21.7977 8.28358 22.0155 8.50263 22.2863 8.50263H22.6298C22.7555 8.50263 22.9018 8.59477 22.9559 8.73974C23.0101 8.8686 23.0101 8.97745 23.0101 9.45352V12.1586H19.0855V9.45352C19.0855 8.99675 19.1029 8.8686 19.1403 8.73974C19.1944 8.61283 19.3381 8.50263 19.4838 8.50263H19.8273C20.0813 8.50263 20.2785 8.28363 20.2785 7.99239C20.2785 7.58911 20.0813 7.46095 19.4838 7.46095H13.5089C13.021 7.46095 12.8212 7.60716 12.8212 7.97243C12.8212 8.26492 13.0017 8.4479 13.3994 8.48397C13.8338 8.5381 14.0329 8.68566 14.0329 8.96004C14.0329 9.06954 14.0149 9.21451 13.9608 9.39879L11.8267 16.4008L9.67524 9.70928C9.53025 9.27053 9.49476 9.10625 9.49476 8.94198C9.49476 8.61278 9.62109 8.50263 10.1084 8.4479C10.5067 8.39313 10.6884 8.24691 10.6884 7.95378C10.6884 7.62652 10.4886 7.461 10.0723 7.461H6.52924C6.11288 7.461 5.89502 7.66069 5.89502 8.00855C5.89502 8.28363 6.04006 8.41183 6.41968 8.50263C6.83544 8.61278 6.98108 8.70362 7.08869 8.97745C7.12478 9.05153 7.16216 9.1971 7.23373 9.39874L8.06521 11.8481L6.38425 16.583L3.94264 9.70933L3.79695 9.28994C3.74279 9.14172 3.72542 9.01416 3.72542 8.88795C3.72542 8.59482 3.88848 8.46601 4.28618 8.42989C4.75604 8.39318 4.93717 8.26497 4.93717 7.95383C4.93717 7.62657 4.75604 7.46105 4.34033 7.46105H0.614258C0.199146 7.461 0 7.62657 0 7.93642C0 8.2289 0.126974 8.35641 0.506599 8.42989C1.08477 8.5581 1.17561 8.65019 1.44633 9.39884L4.99127 19.0151ZM17.3864 33.7703C20.4453 33.7703 22.5691 32.0283 23.1949 29.1853C23.8034 32.0051 25.9213 33.7703 28.9236 33.7703C32.5962 33.7703 34.9281 31.2656 34.9281 27.3526C34.9281 23.513 32.5962 21.0451 28.9597 21.0451C25.9336 21.0451 23.8272 22.7728 23.2059 25.608C22.5968 22.7831 20.4705 21.0451 17.4232 21.0451C13.7873 21.0451 11.4728 23.5323 11.4728 27.444C11.4727 31.2655 13.806 33.7703 17.3864 33.7703ZM28.9423 22.3437C30.9501 22.3437 32.216 24.299 32.216 27.444C32.216 30.5156 30.9681 32.4535 28.9791 32.4535C26.9353 32.4535 25.7229 30.5903 25.7229 27.4621C25.7229 24.2822 26.9352 22.3437 28.9423 22.3437ZM17.4044 22.3437C19.4109 22.3437 20.6774 24.299 20.6774 27.444C20.6774 30.5156 19.4302 32.4535 17.4412 32.4535C15.3974 32.4535 14.185 30.5903 14.185 27.4621C14.185 24.2822 15.3974 22.3437 17.4044 22.3437ZM17.69 37.115C17.6345 36.9933 17.6113 36.8954 17.5984 36.8206H17.5701C17.5514 36.8909 17.505 36.9971 17.4541 37.115L17.1041 37.899L17.0351 38.0085L17.1556 37.9969H18.0084L18.1044 38.0085L18.0451 37.899L17.69 37.115Z" fill="#061B23"/>
</svg>
